<svg
 xmlns="http://www.w3.org/2000/svg"
 xmlns:xlink="http://www.w3.org/1999/xlink"
 width="46px" height="31px">
<path fill-rule="evenodd"  fill="rgb(241, 14, 52)"
 d="M5.748,11.221 C5.383,10.869 4.804,10.694 4.010,10.694 L3.678,10.694 L3.678,14.990 L4.010,14.990 C4.791,14.990 5.370,14.821 5.748,14.483 C6.217,14.053 6.451,13.506 6.451,12.842 C6.451,12.165 6.217,11.625 5.748,11.221 L5.748,11.221 ZM39.908,10.615 L39.518,10.615 L39.518,12.588 L39.889,12.588 C40.722,12.588 41.139,12.250 41.139,11.572 C41.139,10.935 40.728,10.615 39.908,10.615 L39.908,10.615 ZM6.588,15.342 C6.002,15.837 5.227,16.084 4.264,16.084 L2.408,16.084 L2.408,9.580 L4.264,9.580 C5.292,9.580 6.132,9.883 6.783,10.489 C7.434,11.094 7.760,11.879 7.760,12.842 C7.760,13.845 7.369,14.678 6.588,15.342 L6.588,15.342 ZM8.346,9.580 L9.615,9.580 L9.615,16.084 L8.346,16.084 L8.346,9.580 ZM13.971,15.664 C13.554,16.062 13.014,16.260 12.350,16.260 C11.425,16.260 10.676,15.843 10.103,15.010 L10.924,14.229 C11.223,14.802 11.686,15.088 12.311,15.088 C12.597,15.088 12.831,15.000 13.014,14.824 C13.196,14.649 13.287,14.431 13.287,14.170 C13.287,13.884 13.163,13.662 12.916,13.506 C12.812,13.428 12.519,13.304 12.037,13.135 C11.438,12.927 11.021,12.689 10.787,12.422 C10.553,12.155 10.436,11.794 10.436,11.338 C10.436,10.817 10.631,10.378 11.021,10.020 C11.412,9.662 11.894,9.483 12.467,9.483 C13.209,9.483 13.847,9.724 14.381,10.205 L13.717,11.065 C13.404,10.713 13.059,10.537 12.682,10.537 C12.408,10.537 12.184,10.606 12.008,10.742 C11.832,10.879 11.744,11.052 11.744,11.260 C11.744,11.442 11.812,11.592 11.949,11.709 C12.086,11.826 12.343,11.950 12.721,12.080 C13.437,12.341 13.928,12.614 14.195,12.901 C14.462,13.187 14.596,13.591 14.596,14.112 C14.596,14.750 14.387,15.267 13.971,15.664 ZM18.443,16.240 C17.480,16.240 16.666,15.912 16.002,15.254 C15.338,14.597 15.006,13.793 15.006,12.842 C15.006,11.892 15.341,11.088 16.012,10.430 C16.682,9.773 17.499,9.444 18.463,9.444 C18.983,9.444 19.504,9.574 20.025,9.834 L20.025,11.338 C19.530,10.843 19.003,10.596 18.443,10.596 C17.844,10.596 17.340,10.814 16.930,11.250 C16.520,11.687 16.314,12.217 16.314,12.842 C16.314,13.493 16.520,14.030 16.930,14.453 C17.340,14.877 17.864,15.088 18.502,15.088 C19.036,15.088 19.543,14.847 20.025,14.365 L20.025,15.869 C19.518,16.117 18.990,16.240 18.443,16.240 L18.443,16.240 ZM43.717,28.545 C43.469,28.792 43.176,28.916 42.838,28.916 L12.193,28.916 C15.553,28.291 18.834,27.523 22.037,26.612 C25.240,25.700 27.958,24.824 30.191,23.985 C32.424,23.145 34.569,22.250 36.627,21.299 C38.684,20.349 40.230,19.587 41.266,19.014 C42.301,18.441 43.241,17.894 44.088,17.373 L44.088,27.666 C44.088,28.005 43.964,28.298 43.717,28.545 ZM23.932,16.416 C22.955,16.416 22.122,16.071 21.432,15.381 C20.741,14.691 20.396,13.858 20.396,12.881 C20.396,11.905 20.741,11.071 21.432,10.381 C22.122,9.691 22.955,9.346 23.932,9.346 C24.908,9.346 25.741,9.691 26.432,10.381 C27.122,11.071 27.467,11.905 27.467,12.881 C27.467,13.858 27.122,14.691 26.432,15.381 C25.741,16.071 24.908,16.416 23.932,16.416 ZM29.752,16.260 L26.978,9.580 L28.365,9.580 L30.103,13.955 L31.861,9.580 L33.248,9.580 L30.436,16.260 L29.752,16.260 ZM33.814,9.580 L37.408,9.580 L37.408,10.694 L35.084,10.694 L35.084,12.139 L37.330,12.139 L37.330,13.233 L35.084,13.233 L35.084,14.990 L37.408,14.990 L37.408,16.084 L33.814,16.084 L33.814,9.580 ZM39.693,13.487 L39.518,13.487 L39.518,16.084 L38.248,16.084 L38.248,9.580 L40.143,9.580 C40.872,9.580 41.438,9.750 41.842,10.088 C42.245,10.427 42.447,10.902 42.447,11.514 C42.447,12.530 41.952,13.142 40.963,13.350 L43.014,16.084 L41.451,16.084 L39.693,13.487 ZM44.586,0.928 C44.085,0.420 43.476,0.166 42.760,0.166 L2.916,0.166 C2.200,0.166 1.591,0.420 1.090,0.928 C0.588,1.436 0.338,2.054 0.338,2.783 L0.338,27.549 C0.338,28.278 0.588,28.897 1.090,29.405 C1.591,29.912 2.200,30.166 2.916,30.166 L42.760,30.166 C43.476,30.166 44.085,29.912 44.586,29.405 C45.087,28.897 45.338,28.278 45.338,27.549 L45.338,2.783 C45.338,2.054 45.087,1.436 44.586,0.928 Z"/>
</svg>
