<svg
 xmlns="http://www.w3.org/2000/svg"
 xmlns:xlink="http://www.w3.org/1999/xlink"
 width="46px" height="31px">
<path fill-rule="evenodd"  fill="rgb(241, 14, 52)"
 d="M38.170,13.389 L37.936,12.315 C37.896,12.445 37.838,12.614 37.760,12.822 C37.682,13.031 37.616,13.200 37.564,13.330 L37.506,13.506 C36.829,15.355 36.399,16.521 36.217,17.002 L38.912,17.002 L38.170,13.389 ZM2.838,9.170 L2.877,8.916 L8.111,8.916 C8.944,8.916 9.433,9.268 9.576,9.971 L10.709,15.733 C9.511,12.386 6.887,10.199 2.838,9.170 L2.838,9.170 ZM17.643,8.916 L12.545,21.436 L9.127,21.436 L6.490,11.475 C7.428,11.853 8.280,12.429 9.049,13.203 C9.817,13.978 10.370,14.821 10.709,15.733 L11.041,17.471 L14.205,8.916 L17.643,8.916 ZM18.951,8.916 L22.193,8.916 L20.162,21.455 L16.920,21.455 L18.951,8.916 ZM31.471,11.944 L31.178,11.787 C30.475,11.462 29.667,11.306 28.756,11.319 C28.157,11.319 27.698,11.426 27.379,11.641 C27.060,11.856 26.900,12.107 26.900,12.393 C26.900,12.666 27.043,12.914 27.330,13.135 C27.616,13.357 28.079,13.630 28.717,13.955 C30.540,14.841 31.451,15.974 31.451,17.354 C31.425,18.656 30.901,19.697 29.879,20.479 C28.857,21.260 27.499,21.644 25.807,21.631 C24.361,21.631 23.157,21.410 22.193,20.967 L22.643,18.155 L23.072,18.369 C23.983,18.799 24.999,19.014 26.119,19.014 C26.627,19.014 27.076,18.910 27.467,18.701 C27.857,18.493 28.053,18.194 28.053,17.803 C28.053,17.530 27.929,17.276 27.682,17.041 C27.434,16.807 26.998,16.540 26.373,16.240 C24.472,15.303 23.528,14.170 23.541,12.842 C23.554,11.618 24.068,10.622 25.084,9.854 C26.100,9.086 27.408,8.701 29.010,8.701 C30.051,8.701 31.021,8.877 31.920,9.229 L31.471,11.944 ZM42.838,21.455 L39.830,21.455 C39.635,20.492 39.504,19.867 39.439,19.580 L35.299,19.580 L34.615,21.455 L31.217,21.455 L36.021,9.971 C36.308,9.268 36.874,8.916 37.721,8.916 L40.221,8.916 L42.838,21.455 ZM44.596,0.908 C44.101,0.414 43.515,0.166 42.838,0.166 L2.838,0.166 C2.161,0.166 1.575,0.414 1.080,0.908 C0.585,1.403 0.338,1.989 0.338,2.666 L0.338,27.666 C0.338,28.343 0.585,28.929 1.080,29.424 C1.575,29.919 2.161,30.166 2.838,30.166 L42.838,30.166 C43.515,30.166 44.101,29.919 44.596,29.424 C45.090,28.929 45.338,28.343 45.338,27.666 L45.338,2.666 C45.338,1.989 45.090,1.403 44.596,0.908 Z"/>
</svg>
