<svg
 xmlns="http://www.w3.org/2000/svg"
 xmlns:xlink="http://www.w3.org/1999/xlink"
 width="46px" height="31px">
<path fill-rule="evenodd"  fill="rgb(241, 14, 52)"
 d="M18.727,9.502 C18.108,11.560 18.105,13.620 18.717,15.684 C19.329,17.748 20.487,19.476 22.193,20.869 C20.526,21.976 18.697,22.530 16.705,22.530 C15.351,22.530 14.062,22.266 12.838,21.739 C11.614,21.211 10.559,20.505 9.674,19.619 C8.788,18.734 8.082,17.679 7.555,16.455 C7.027,15.232 6.764,13.942 6.764,12.588 C6.764,11.247 7.027,9.965 7.555,8.740 C8.082,7.517 8.788,6.462 9.674,5.576 C10.559,4.691 11.617,3.985 12.848,3.457 C14.078,2.930 15.364,2.666 16.705,2.666 C18.697,2.666 20.526,3.220 22.193,4.326 C20.501,5.720 19.345,7.445 18.727,9.502 ZM26.197,9.668 C26.796,11.628 26.799,13.584 26.207,15.537 C25.614,17.490 24.491,19.112 22.838,20.401 C21.184,19.112 20.061,17.490 19.469,15.537 C18.876,13.584 18.879,11.628 19.478,9.668 C20.077,7.709 21.197,6.084 22.838,4.795 C24.478,6.084 25.598,7.709 26.197,9.668 ZM28.971,2.666 C30.312,2.666 31.598,2.930 32.828,3.457 C34.059,3.985 35.116,4.691 36.002,5.576 C36.887,6.462 37.594,7.517 38.121,8.740 C38.648,9.965 38.912,11.247 38.912,12.588 C38.912,13.942 38.648,15.232 38.121,16.455 C37.594,17.679 36.887,18.734 36.002,19.619 C35.116,20.505 34.062,21.211 32.838,21.739 C31.614,22.266 30.325,22.530 28.971,22.530 C26.978,22.530 25.149,21.976 23.482,20.869 C25.188,19.489 26.347,17.767 26.959,15.703 C27.571,13.640 27.567,11.576 26.949,9.512 C26.331,7.448 25.175,5.720 23.482,4.326 C25.149,3.220 26.978,2.666 28.971,2.666 L28.971,2.666 ZM37.955,18.760 L37.896,18.760 L37.896,18.428 L37.760,18.428 L37.760,18.369 L38.092,18.369 L38.092,18.428 L37.955,18.428 L37.955,18.760 ZM38.521,18.467 L38.424,18.721 L38.346,18.721 L38.228,18.467 L38.228,18.760 L38.170,18.760 L38.170,18.369 L38.268,18.369 L38.385,18.623 L38.502,18.369 L38.600,18.369 L38.600,18.760 L38.521,18.760 L38.521,18.467 ZM38.365,27.334 L38.326,27.334 L38.268,27.334 L38.268,27.393 L38.326,27.393 L38.365,27.393 L38.365,27.354 L38.365,27.334 ZM38.287,27.432 L38.268,27.432 L38.268,27.530 L38.209,27.530 L38.209,27.276 L38.326,27.276 C38.339,27.276 38.358,27.276 38.385,27.276 L38.404,27.295 C38.417,27.308 38.424,27.328 38.424,27.354 C38.424,27.380 38.417,27.400 38.404,27.412 L38.385,27.432 C38.372,27.432 38.358,27.432 38.346,27.432 L38.424,27.530 L38.365,27.530 L38.287,27.432 ZM14.518,27.041 C14.752,27.041 14.941,26.963 15.084,26.807 C15.227,26.651 15.299,26.449 15.299,26.201 C15.299,25.967 15.227,25.769 15.084,25.606 C14.941,25.443 14.752,25.362 14.518,25.362 C14.270,25.362 14.075,25.440 13.932,25.596 C13.788,25.752 13.717,25.954 13.717,26.201 C13.717,26.449 13.788,26.651 13.932,26.807 C14.075,26.963 14.270,27.041 14.518,27.041 L14.518,27.041 ZM22.271,25.967 L23.639,25.967 C23.573,25.550 23.346,25.342 22.955,25.342 C22.564,25.342 22.336,25.550 22.271,25.967 L22.271,25.967 ZM30.689,27.041 C30.937,27.041 31.132,26.963 31.275,26.807 C31.418,26.651 31.490,26.449 31.490,26.201 C31.490,25.967 31.415,25.769 31.266,25.606 C31.116,25.443 30.924,25.362 30.689,25.362 C30.455,25.362 30.266,25.440 30.123,25.596 C29.980,25.752 29.908,25.954 29.908,26.201 C29.908,26.449 29.980,26.651 30.123,26.807 C30.266,26.963 30.455,27.041 30.689,27.041 L30.689,27.041 ZM36.021,27.041 C36.256,27.041 36.448,26.963 36.598,26.807 C36.747,26.651 36.822,26.449 36.822,26.201 C36.822,25.967 36.747,25.769 36.598,25.606 C36.448,25.443 36.256,25.362 36.021,25.362 C35.787,25.362 35.595,25.443 35.445,25.606 C35.295,25.769 35.221,25.967 35.221,26.201 C35.221,26.436 35.295,26.634 35.445,26.797 C35.595,26.960 35.787,27.041 36.021,27.041 ZM38.385,27.588 C38.411,27.588 38.437,27.575 38.463,27.549 L38.482,27.510 C38.495,27.510 38.502,27.504 38.502,27.490 C38.502,27.478 38.502,27.458 38.502,27.432 L38.521,27.412 C38.521,27.400 38.515,27.380 38.502,27.354 L38.502,27.334 L38.463,27.256 L38.385,27.217 C38.372,27.204 38.346,27.197 38.307,27.197 C38.280,27.197 38.254,27.204 38.228,27.217 C38.228,27.230 38.215,27.237 38.189,27.237 L38.170,27.256 C38.144,27.282 38.131,27.308 38.131,27.334 C38.118,27.347 38.111,27.373 38.111,27.412 C38.111,27.439 38.118,27.465 38.131,27.490 C38.131,27.504 38.144,27.523 38.170,27.549 C38.196,27.575 38.215,27.588 38.228,27.588 C38.254,27.601 38.280,27.608 38.307,27.608 L38.307,27.608 L38.307,27.608 C38.346,27.608 38.372,27.601 38.385,27.588 L38.385,27.588 ZM12.037,26.065 C12.037,25.596 11.842,25.362 11.451,25.362 C11.021,25.362 10.807,25.596 10.807,26.065 L10.807,27.530 L10.240,27.530 L10.240,26.065 C10.240,25.596 10.045,25.362 9.654,25.362 C9.225,25.362 9.010,25.596 9.010,26.065 L9.010,27.530 L8.424,27.530 L8.424,24.893 L9.010,24.893 L9.010,25.205 C9.205,24.945 9.459,24.815 9.771,24.815 C10.175,24.815 10.468,24.971 10.650,25.283 C10.846,24.971 11.151,24.815 11.568,24.815 C11.894,24.828 12.151,24.929 12.340,25.117 C12.528,25.306 12.623,25.557 12.623,25.869 L12.623,27.530 L12.037,27.530 L12.037,26.065 ZM15.279,27.197 C15.084,27.458 14.804,27.588 14.439,27.588 C14.062,27.588 13.749,27.458 13.502,27.197 C13.254,26.937 13.131,26.605 13.131,26.201 C13.131,25.798 13.254,25.466 13.502,25.205 C13.749,24.945 14.062,24.815 14.439,24.815 C14.778,24.815 15.058,24.945 15.279,25.205 L15.279,24.893 L15.846,24.893 L15.846,26.201 L15.846,27.530 L15.279,27.530 L15.279,27.197 ZM18.434,27.354 C18.219,27.510 17.922,27.588 17.545,27.588 C17.115,27.588 16.737,27.478 16.412,27.256 L16.666,26.807 C16.926,26.989 17.219,27.080 17.545,27.080 C17.948,27.080 18.150,26.970 18.150,26.748 C18.150,26.618 17.994,26.527 17.682,26.475 L17.428,26.436 C16.816,26.358 16.510,26.104 16.510,25.674 C16.510,25.414 16.607,25.205 16.803,25.049 C16.998,24.893 17.265,24.815 17.603,24.815 C18.033,24.815 18.391,24.906 18.678,25.088 L18.443,25.557 C18.183,25.414 17.903,25.342 17.603,25.342 C17.278,25.342 17.115,25.440 17.115,25.635 C17.115,25.765 17.265,25.857 17.564,25.908 L17.838,25.947 C18.450,26.026 18.756,26.286 18.756,26.729 C18.756,26.989 18.648,27.197 18.434,27.354 ZM20.592,27.588 C19.980,27.588 19.674,27.263 19.674,26.612 L19.674,25.420 L19.127,25.420 L19.127,24.893 L19.674,24.893 L19.674,24.092 L20.260,24.092 L20.260,24.893 L21.197,24.893 L21.197,25.420 L20.260,25.420 L20.260,26.612 C20.260,26.898 20.383,27.041 20.631,27.041 C20.800,27.041 20.969,26.996 21.139,26.905 L21.295,27.393 C21.100,27.523 20.865,27.588 20.592,27.588 L20.592,27.588 ZM23.873,25.196 C24.107,25.449 24.225,25.785 24.225,26.201 L24.225,26.436 L22.252,26.436 C22.343,26.865 22.610,27.080 23.053,27.080 C23.326,27.080 23.580,26.983 23.814,26.787 L24.088,27.217 C23.801,27.465 23.443,27.588 23.014,27.588 C22.623,27.588 22.301,27.461 22.047,27.207 C21.793,26.953 21.666,26.618 21.666,26.201 C21.666,25.798 21.790,25.466 22.037,25.205 C22.284,24.945 22.597,24.815 22.975,24.815 C23.339,24.815 23.639,24.942 23.873,25.196 ZM26.490,24.893 L26.314,25.440 C26.210,25.388 26.093,25.362 25.963,25.362 C25.585,25.362 25.396,25.590 25.396,26.045 L25.396,27.530 L24.811,27.530 L24.811,24.893 L25.396,24.893 L25.396,25.205 C25.553,24.945 25.780,24.815 26.080,24.815 C26.236,24.815 26.373,24.841 26.490,24.893 L26.490,24.893 ZM28.072,24.815 C28.437,24.815 28.749,24.919 29.010,25.127 L28.736,25.596 C28.528,25.440 28.300,25.362 28.053,25.362 C27.818,25.362 27.626,25.440 27.477,25.596 C27.327,25.752 27.252,25.954 27.252,26.201 C27.252,26.449 27.327,26.651 27.477,26.807 C27.626,26.963 27.818,27.041 28.053,27.041 C28.274,27.054 28.502,26.976 28.736,26.807 L29.010,27.276 C28.762,27.484 28.450,27.588 28.072,27.588 C27.643,27.588 27.301,27.458 27.047,27.197 C26.793,26.937 26.666,26.605 26.666,26.201 C26.666,25.798 26.793,25.466 27.047,25.205 C27.301,24.945 27.643,24.815 28.072,24.815 L28.072,24.815 ZM31.451,27.197 C31.269,27.458 30.995,27.588 30.631,27.588 C30.253,27.588 29.937,27.458 29.684,27.197 C29.430,26.937 29.303,26.605 29.303,26.201 C29.303,25.798 29.430,25.466 29.684,25.205 C29.937,24.945 30.253,24.815 30.631,24.815 C30.982,24.815 31.256,24.945 31.451,25.205 L31.451,24.893 L32.037,24.893 L32.037,26.201 L32.037,27.530 L31.451,27.530 L31.451,27.197 ZM34.459,24.893 L34.283,25.440 C34.179,25.388 34.062,25.362 33.932,25.362 C33.554,25.362 33.365,25.590 33.365,26.045 L33.365,27.530 L32.799,27.530 L32.799,24.893 L33.365,24.893 L33.365,25.205 C33.521,24.945 33.749,24.815 34.049,24.815 C34.218,24.815 34.355,24.841 34.459,24.893 L34.459,24.893 ZM36.783,27.197 C36.601,27.458 36.321,27.588 35.943,27.588 C35.579,27.588 35.270,27.455 35.016,27.188 C34.762,26.921 34.635,26.592 34.635,26.201 C34.635,25.811 34.762,25.482 35.016,25.215 C35.270,24.948 35.579,24.815 35.943,24.815 C36.308,24.815 36.588,24.945 36.783,25.205 L36.783,23.819 L37.350,23.819 L37.350,26.201 L37.350,27.530 L36.783,27.530 L36.783,27.197 ZM38.365,27.149 C38.391,27.155 38.411,27.158 38.424,27.158 L38.463,27.178 C38.489,27.191 38.502,27.204 38.502,27.217 C38.528,27.256 38.547,27.282 38.561,27.295 C38.573,27.321 38.580,27.360 38.580,27.412 C38.580,27.451 38.573,27.484 38.561,27.510 C38.534,27.549 38.515,27.575 38.502,27.588 L38.463,27.608 C38.437,27.621 38.424,27.634 38.424,27.647 C38.398,27.660 38.358,27.666 38.307,27.666 C38.268,27.666 38.235,27.660 38.209,27.647 C38.183,27.634 38.157,27.614 38.131,27.588 C38.092,27.562 38.072,27.536 38.072,27.510 C38.059,27.484 38.053,27.451 38.053,27.412 C38.053,27.360 38.059,27.321 38.072,27.295 C38.072,27.256 38.092,27.230 38.131,27.217 C38.157,27.191 38.183,27.172 38.209,27.158 C38.222,27.158 38.241,27.158 38.268,27.158 L38.307,27.139 C38.319,27.139 38.339,27.142 38.365,27.149 ZM44.596,0.908 C44.101,0.414 43.515,0.166 42.838,0.166 L2.838,0.166 C2.161,0.166 1.575,0.414 1.080,0.908 C0.585,1.403 0.338,1.989 0.338,2.666 L0.338,27.666 C0.338,28.343 0.585,28.929 1.080,29.424 C1.575,29.919 2.161,30.166 2.838,30.166 L42.838,30.166 C43.515,30.166 44.101,29.919 44.596,29.424 C45.090,28.929 45.338,28.343 45.338,27.666 L45.338,2.666 C45.338,1.989 45.090,1.403 44.596,0.908 Z"/>
</svg>
