<svg
 xmlns="http://www.w3.org/2000/svg"
 xmlns:xlink="http://www.w3.org/1999/xlink"
 width="46px" height="31px">
<path fill-rule="evenodd"  fill="rgb(241, 14, 52)"
 d="M13.736,19.278 C12.877,18.047 12.447,16.670 12.447,15.147 C12.447,13.623 12.877,12.246 13.736,11.016 C14.596,9.785 15.715,8.903 17.096,8.369 L17.096,21.905 C15.715,21.384 14.596,20.508 13.736,19.278 ZM22.291,21.924 L22.291,8.369 C23.671,8.903 24.791,9.785 25.650,11.016 C26.510,12.246 26.939,13.623 26.939,15.147 C26.939,16.670 26.510,18.047 25.650,19.278 C24.791,20.508 23.671,21.390 22.291,21.924 L22.291,21.924 ZM25.436,5.235 C23.678,4.213 21.764,3.701 19.693,3.701 C17.623,3.701 15.709,4.213 13.951,5.235 C12.193,6.257 10.803,7.647 9.781,9.405 C8.759,11.162 8.248,13.076 8.248,15.147 C8.248,16.696 8.551,18.177 9.156,19.590 C9.762,21.003 10.575,22.220 11.598,23.242 C12.620,24.265 13.837,25.078 15.250,25.684 C16.663,26.289 18.144,26.592 19.693,26.592 C21.764,26.592 23.678,26.081 25.436,25.059 C27.193,24.037 28.583,22.647 29.605,20.889 C30.627,19.131 31.139,17.217 31.139,15.147 C31.139,13.076 30.627,11.162 29.605,9.405 C28.583,7.647 27.193,6.257 25.436,5.235 ZM37.535,20.088 C36.812,21.625 35.852,22.943 34.654,24.043 C33.456,25.144 32.060,26.023 30.465,26.680 C28.870,27.338 27.232,27.666 25.553,27.666 L19.674,27.666 C17.408,27.666 15.305,27.113 13.365,26.006 C11.425,24.900 9.889,23.392 8.756,21.485 C7.623,19.577 7.057,17.510 7.057,15.283 C7.057,12.862 7.626,10.681 8.766,8.740 C9.905,6.800 11.435,5.303 13.355,4.248 C15.276,3.194 17.382,2.666 19.674,2.666 L25.553,2.666 C27.258,2.666 28.902,2.979 30.484,3.604 C32.066,4.229 33.456,5.082 34.654,6.162 C35.852,7.243 36.812,8.581 37.535,10.176 C38.258,11.771 38.619,13.474 38.619,15.283 C38.619,16.950 38.258,18.552 37.535,20.088 ZM44.596,0.908 C44.101,0.414 43.515,0.166 42.838,0.166 L2.838,0.166 C2.161,0.166 1.575,0.414 1.080,0.908 C0.585,1.403 0.338,1.989 0.338,2.666 L0.338,27.666 C0.338,28.343 0.585,28.929 1.080,29.424 C1.575,29.919 2.161,30.166 2.838,30.166 L42.838,30.166 C43.515,30.166 44.101,29.919 44.596,29.424 C45.090,28.929 45.338,28.343 45.338,27.666 L45.338,2.666 C45.338,1.989 45.090,1.403 44.596,0.908 Z"/>
</svg>
