<svg xmlns="http://www.w3.org/2000/svg" xmlns:xlink="http://www.w3.org/1999/xlink"><symbol id="cart">
<path fill-rule="evenodd" d="M4.624,10.595 C4.333,10.595 4.082,10.701 3.870,10.913 C3.658,11.125 3.552,11.376 3.552,11.666 C3.552,11.956 3.658,12.207 3.870,12.420 C4.082,12.632 4.333,12.738 4.624,12.738 C4.914,12.738 5.165,12.632 5.377,12.420 C5.589,12.207 5.695,11.956 5.695,11.666 C5.695,11.376 5.589,11.125 5.377,10.913 C5.165,10.701 4.914,10.595 4.624,10.595 ZM12.124,10.595 C11.833,10.595 11.582,10.701 11.370,10.913 C11.158,11.125 11.052,11.376 11.052,11.666 C11.052,11.956 11.158,12.207 11.370,12.420 C11.582,12.632 11.833,12.738 12.124,12.738 C12.414,12.738 12.665,12.632 12.877,12.420 C13.089,12.207 13.195,11.956 13.195,11.666 C13.195,11.376 13.089,11.125 12.877,10.913 C12.665,10.701 12.414,10.595 12.124,10.595 ZM14.107,2.182 C14.001,2.076 13.876,2.023 13.731,2.023 L3.678,2.023 C3.672,1.984 3.660,1.912 3.640,1.806 C3.620,1.700 3.605,1.617 3.594,1.559 C3.583,1.500 3.561,1.428 3.527,1.341 C3.494,1.255 3.457,1.186 3.418,1.136 C3.379,1.086 3.325,1.043 3.255,1.006 C3.185,0.970 3.106,0.952 3.016,0.952 L0.874,0.952 C0.728,0.952 0.603,1.005 0.497,1.111 C0.391,1.217 0.338,1.343 0.338,1.488 C0.338,1.633 0.391,1.758 0.497,1.864 C0.603,1.970 0.728,2.023 0.874,2.023 L2.581,2.023 L4.063,8.912 C4.051,8.940 4.008,9.023 3.933,9.159 C3.858,9.296 3.798,9.408 3.753,9.494 C3.708,9.581 3.664,9.681 3.619,9.795 C3.574,9.910 3.552,9.998 3.552,10.059 C3.552,10.204 3.605,10.330 3.711,10.436 C3.817,10.542 3.943,10.595 4.088,10.595 L12.659,10.595 C12.804,10.595 12.930,10.542 13.036,10.436 C13.142,10.330 13.195,10.204 13.195,10.059 C13.195,9.914 13.142,9.788 13.036,9.682 C12.930,9.576 12.804,9.523 12.659,9.523 L4.958,9.523 C5.092,9.256 5.159,9.077 5.159,8.988 C5.159,8.932 5.123,8.737 5.050,8.402 L13.789,7.381 C13.923,7.364 14.036,7.304 14.128,7.201 C14.220,7.097 14.266,6.979 14.266,6.845 L14.266,2.559 C14.266,2.414 14.213,2.289 14.107,2.182 Z"/>
</symbol><symbol id="clock">
<path fill-rule="evenodd" d="M6.773,3.303 C6.729,3.259 6.673,3.238 6.606,3.238 L6.141,3.238 C6.074,3.238 6.018,3.259 5.975,3.303 C5.931,3.346 5.909,3.402 5.909,3.470 L5.909,6.023 L4.284,6.023 C4.217,6.023 4.161,6.045 4.117,6.089 C4.074,6.132 4.052,6.188 4.052,6.256 L4.052,6.720 C4.052,6.788 4.074,6.843 4.117,6.887 C4.161,6.930 4.217,6.952 4.284,6.952 L6.606,6.952 C6.673,6.952 6.729,6.930 6.773,6.887 C6.816,6.843 6.838,6.788 6.838,6.720 L6.838,3.470 C6.838,3.402 6.816,3.346 6.773,3.303 ZM7.890,9.440 C7.285,9.793 6.625,9.970 5.909,9.970 C5.193,9.970 4.533,9.793 3.929,9.440 C3.324,9.087 2.845,8.608 2.492,8.004 C2.139,7.399 1.963,6.739 1.963,6.023 C1.963,5.308 2.139,4.648 2.492,4.043 C2.845,3.438 3.324,2.960 3.929,2.607 C4.533,2.254 5.193,2.077 5.909,2.077 C6.625,2.077 7.285,2.254 7.890,2.607 C8.494,2.960 8.973,3.438 9.326,4.043 C9.679,4.648 9.856,5.308 9.856,6.023 C9.856,6.739 9.679,7.399 9.326,8.004 C8.973,8.608 8.494,9.087 7.890,9.440 ZM8.706,1.199 C7.852,0.701 6.920,0.452 5.909,0.452 C4.898,0.452 3.966,0.701 3.113,1.199 C2.259,1.697 1.583,2.373 1.085,3.227 C0.587,4.080 0.338,5.013 0.338,6.023 C0.338,7.034 0.587,7.966 1.085,8.820 C1.583,9.674 2.259,10.350 3.113,10.848 C3.966,11.346 4.898,11.595 5.909,11.595 C6.920,11.595 7.852,11.346 8.706,10.848 C9.559,10.350 10.235,9.674 10.734,8.820 C11.232,7.966 11.481,7.034 11.481,6.023 C11.481,5.013 11.232,4.080 10.734,3.227 C10.235,2.373 9.559,1.697 8.706,1.199 Z"/>
</symbol><symbol id="facebook">
<path fill-rule="evenodd" d="M4.641,0.523 C3.804,0.523 3.134,0.771 2.631,1.267 C2.128,1.763 1.877,2.460 1.877,3.360 L1.877,4.941 L0.027,4.941 L0.027,7.089 L1.877,7.089 L1.877,12.595 L4.097,12.595 L4.097,7.089 L5.939,7.089 L6.222,4.941 L4.097,4.941 L4.097,3.570 C4.097,3.222 4.169,2.961 4.314,2.787 C4.460,2.613 4.740,2.526 5.156,2.526 L6.295,2.526 L6.295,0.610 C5.903,0.552 5.352,0.523 4.641,0.523 L4.641,0.523 Z"/>
</symbol><symbol id="google">
<path fill-rule="evenodd" d="M10.675,5.262 L5.655,5.262 L5.655,7.090 L8.673,7.090 C8.644,7.259 8.592,7.438 8.517,7.627 C8.442,7.815 8.324,8.016 8.162,8.229 C8.000,8.442 7.810,8.631 7.592,8.798 C7.375,8.965 7.098,9.104 6.762,9.215 C6.425,9.327 6.057,9.382 5.655,9.382 C5.061,9.382 4.510,9.232 4.005,8.932 C3.500,8.633 3.099,8.225 2.804,7.710 C2.509,7.195 2.362,6.633 2.362,6.023 C2.362,5.414 2.509,4.852 2.804,4.337 C3.099,3.822 3.500,3.414 4.005,3.114 C4.510,2.815 5.061,2.665 5.655,2.665 C6.502,2.665 7.208,2.938 7.774,3.484 L9.217,2.099 C8.226,1.170 7.038,0.706 5.655,0.706 C4.935,0.706 4.246,0.846 3.588,1.127 C2.930,1.407 2.364,1.784 1.890,2.258 C1.416,2.732 1.039,3.298 0.759,3.956 C0.478,4.614 0.338,5.303 0.338,6.023 C0.338,6.744 0.478,7.433 0.759,8.091 C1.039,8.749 1.416,9.315 1.890,9.788 C2.364,10.262 2.930,10.640 3.588,10.920 C4.246,11.201 4.935,11.341 5.655,11.341 C6.661,11.341 7.554,11.120 8.332,10.677 C9.111,10.235 9.711,9.620 10.131,8.834 C10.552,8.049 10.763,7.153 10.763,6.147 C10.763,5.861 10.734,5.566 10.675,5.262 L10.675,5.262 ZM15.536,5.262 L15.536,3.745 L14.013,3.745 L14.013,5.262 L12.496,5.262 L12.496,6.785 L14.013,6.785 L14.013,8.301 L15.536,8.301 L15.536,6.785 L17.052,6.785 L17.052,5.262 L15.536,5.262 Z"/>
</symbol><symbol id="instagram">
<path fill-rule="evenodd" d="M5.909,7.881 C5.397,7.881 4.959,7.699 4.596,7.336 C4.234,6.974 4.052,6.536 4.052,6.023 C4.052,5.511 4.234,5.073 4.596,4.710 C4.959,4.348 5.397,4.166 5.909,4.166 C6.422,4.166 6.860,4.348 7.222,4.710 C7.585,5.073 7.766,5.511 7.766,6.023 C7.766,6.536 7.585,6.974 7.222,7.336 C6.860,7.699 6.422,7.881 5.909,7.881 ZM5.909,3.165 C5.116,3.165 4.441,3.443 3.885,3.999 C3.329,4.556 3.051,5.230 3.051,6.023 C3.051,6.817 3.329,7.491 3.885,8.047 C4.441,8.604 5.116,8.882 5.909,8.882 C6.702,8.882 7.377,8.604 7.933,8.047 C8.489,7.491 8.768,6.817 8.768,6.023 C8.768,5.230 8.489,4.556 7.933,3.999 C7.377,3.443 6.702,3.165 5.909,3.165 ZM8.884,2.382 C8.700,2.382 8.543,2.447 8.412,2.578 C8.281,2.708 8.216,2.865 8.216,3.049 C8.216,3.233 8.281,3.390 8.412,3.521 C8.543,3.651 8.700,3.716 8.884,3.716 C9.067,3.716 9.225,3.651 9.355,3.521 C9.486,3.390 9.551,3.233 9.551,3.049 C9.551,2.865 9.486,2.708 9.355,2.578 C9.225,2.447 9.067,2.382 8.884,2.382 ZM7.230,1.449 C7.404,1.452 7.637,1.459 7.930,1.471 C8.222,1.483 8.471,1.507 8.677,1.544 C8.882,1.580 9.055,1.625 9.196,1.678 C9.437,1.775 9.650,1.915 9.834,2.099 C10.018,2.283 10.158,2.495 10.255,2.737 C10.308,2.877 10.353,3.050 10.389,3.256 C10.425,3.461 10.449,3.710 10.461,4.003 C10.473,4.296 10.481,4.529 10.483,4.703 C10.486,4.877 10.486,5.132 10.483,5.468 C10.481,5.805 10.480,5.990 10.480,6.023 C10.480,6.057 10.481,6.242 10.483,6.578 C10.486,6.915 10.486,7.170 10.483,7.344 C10.481,7.518 10.473,7.751 10.461,8.044 C10.449,8.336 10.425,8.585 10.389,8.791 C10.353,8.997 10.308,9.169 10.255,9.310 C10.158,9.552 10.018,9.764 9.834,9.948 C9.650,10.132 9.437,10.272 9.196,10.369 C9.055,10.422 8.882,10.467 8.677,10.503 C8.471,10.539 8.222,10.564 7.930,10.576 C7.637,10.588 7.404,10.595 7.230,10.597 C7.055,10.600 6.800,10.600 6.464,10.597 C6.128,10.595 5.943,10.594 5.909,10.594 C5.875,10.594 5.690,10.595 5.354,10.597 C5.018,10.600 4.763,10.600 4.589,10.597 C4.415,10.595 4.181,10.588 3.889,10.576 C3.596,10.564 3.347,10.539 3.142,10.503 C2.936,10.467 2.763,10.422 2.623,10.369 C2.381,10.272 2.168,10.132 1.985,9.948 C1.801,9.764 1.661,9.552 1.564,9.310 C1.511,9.169 1.466,8.997 1.430,8.791 C1.393,8.585 1.369,8.336 1.357,8.044 C1.345,7.751 1.338,7.518 1.335,7.344 C1.333,7.170 1.333,6.915 1.335,6.578 C1.338,6.242 1.339,6.057 1.339,6.023 C1.339,5.990 1.338,5.805 1.335,5.468 C1.333,5.132 1.333,4.877 1.335,4.703 C1.338,4.529 1.345,4.296 1.357,4.003 C1.369,3.710 1.393,3.461 1.430,3.256 C1.466,3.050 1.511,2.877 1.564,2.737 C1.661,2.495 1.801,2.283 1.985,2.099 C2.168,1.915 2.381,1.775 2.623,1.678 C2.763,1.625 2.936,1.580 3.142,1.544 C3.347,1.507 3.596,1.483 3.889,1.471 C4.181,1.459 4.415,1.452 4.589,1.449 C4.763,1.447 5.018,1.447 5.354,1.449 C5.690,1.452 5.875,1.453 5.909,1.453 C5.943,1.453 6.128,1.452 6.464,1.449 C6.800,1.447 7.055,1.447 7.230,1.449 ZM11.444,3.724 C11.396,2.718 11.096,1.939 10.545,1.388 C9.994,0.836 9.215,0.537 8.209,0.488 C7.783,0.464 7.017,0.452 5.909,0.452 C4.802,0.452 4.035,0.464 3.610,0.488 C2.604,0.537 1.825,0.836 1.274,1.388 C0.722,1.939 0.422,2.718 0.374,3.724 C0.350,4.149 0.338,4.916 0.338,6.023 C0.338,7.131 0.350,7.898 0.374,8.323 C0.422,9.329 0.722,10.108 1.274,10.659 C1.825,11.210 2.604,11.510 3.610,11.559 C4.035,11.583 4.802,11.595 5.909,11.595 C7.017,11.595 7.783,11.583 8.209,11.559 C9.215,11.510 9.994,11.210 10.545,10.659 C11.096,10.108 11.396,9.329 11.444,8.323 C11.469,7.898 11.481,7.131 11.481,6.023 C11.481,4.916 11.469,4.149 11.444,3.724 L11.444,3.724 Z"/>
</symbol><symbol id="mail">
<path fill-rule="evenodd" d="M12.612,4.305 C11.026,5.379 9.822,6.213 9.000,6.808 C8.724,7.011 8.500,7.170 8.329,7.283 C8.157,7.397 7.928,7.513 7.643,7.631 C7.358,7.750 7.092,7.809 6.845,7.809 L6.838,7.809 L6.831,7.809 C6.584,7.809 6.318,7.750 6.033,7.631 C5.747,7.513 5.519,7.397 5.347,7.283 C5.175,7.170 4.952,7.011 4.676,6.808 C4.023,6.329 2.821,5.495 1.071,4.305 C0.795,4.121 0.551,3.911 0.338,3.674 L0.338,9.434 C0.338,9.753 0.451,10.026 0.679,10.254 C0.906,10.481 1.179,10.595 1.499,10.595 L12.177,10.595 C12.496,10.595 12.770,10.481 12.997,10.254 C13.224,10.026 13.338,9.753 13.338,9.434 L13.338,3.674 C13.130,3.906 12.888,4.117 12.612,4.305 L12.612,4.305 ZM12.993,0.721 C12.764,0.494 12.491,0.381 12.177,0.381 L1.499,0.381 C1.126,0.381 0.840,0.506 0.639,0.758 C0.438,1.009 0.338,1.324 0.338,1.701 C0.338,2.006 0.471,2.336 0.737,2.691 C1.003,3.047 1.286,3.326 1.586,3.529 C1.750,3.645 2.246,3.990 3.073,4.563 C3.900,5.136 4.533,5.577 4.973,5.887 C5.022,5.921 5.125,5.994 5.282,6.108 C5.439,6.222 5.569,6.314 5.674,6.384 C5.777,6.454 5.903,6.532 6.051,6.619 C6.198,6.706 6.337,6.772 6.468,6.815 C6.598,6.859 6.719,6.881 6.831,6.881 L6.838,6.881 L6.845,6.881 C6.956,6.881 7.077,6.859 7.208,6.815 C7.338,6.772 7.477,6.706 7.625,6.619 C7.772,6.532 7.898,6.454 8.002,6.384 C8.106,6.314 8.237,6.222 8.394,6.108 C8.551,5.994 8.654,5.921 8.702,5.887 C9.147,5.577 10.279,4.791 12.097,3.529 C12.450,3.282 12.745,2.985 12.982,2.637 C13.219,2.288 13.338,1.923 13.338,1.541 C13.338,1.222 13.223,0.949 12.993,0.721 Z"/>
</symbol><symbol id="menu">
<path fill-rule="evenodd" d="M1.945,8.988 C1.498,8.988 1.119,9.144 0.807,9.456 C0.494,9.769 0.338,10.148 0.338,10.595 C0.338,11.041 0.494,11.421 0.807,11.733 C1.119,12.046 1.498,12.202 1.945,12.202 C2.391,12.202 2.771,12.046 3.083,11.733 C3.396,11.421 3.552,11.041 3.552,10.595 C3.552,10.148 3.396,9.769 3.083,9.456 C2.771,9.144 2.391,8.988 1.945,8.988 ZM1.945,4.702 C1.498,4.702 1.119,4.858 0.807,5.171 C0.494,5.483 0.338,5.863 0.338,6.309 C0.338,6.756 0.494,7.135 0.807,7.447 C1.119,7.760 1.498,7.916 1.945,7.916 C2.391,7.916 2.771,7.760 3.083,7.447 C3.396,7.135 3.552,6.756 3.552,6.309 C3.552,5.863 3.396,5.483 3.083,5.171 C2.771,4.858 2.391,4.702 1.945,4.702 ZM15.258,9.603 C15.205,9.550 15.142,9.523 15.070,9.523 L4.891,9.523 C4.819,9.523 4.756,9.550 4.703,9.603 C4.650,9.656 4.624,9.719 4.624,9.791 L4.624,11.398 C4.624,11.471 4.650,11.534 4.703,11.587 C4.756,11.640 4.819,11.666 4.891,11.666 L15.070,11.666 C15.142,11.666 15.205,11.640 15.258,11.587 C15.311,11.534 15.338,11.471 15.338,11.398 L15.338,9.791 C15.338,9.719 15.311,9.656 15.258,9.603 ZM1.945,0.416 C1.498,0.416 1.119,0.573 0.807,0.885 C0.494,1.198 0.338,1.577 0.338,2.023 C0.338,2.470 0.494,2.849 0.807,3.162 C1.119,3.474 1.498,3.631 1.945,3.631 C2.391,3.631 2.771,3.474 3.083,3.162 C3.396,2.849 3.552,2.470 3.552,2.023 C3.552,1.577 3.396,1.198 3.083,0.885 C2.771,0.573 2.391,0.416 1.945,0.416 ZM15.258,5.317 C15.205,5.264 15.142,5.238 15.070,5.238 L4.891,5.238 C4.819,5.238 4.756,5.264 4.703,5.317 C4.650,5.370 4.624,5.433 4.624,5.506 L4.624,7.113 C4.624,7.185 4.650,7.248 4.703,7.301 C4.756,7.354 4.819,7.381 4.891,7.381 L15.070,7.381 C15.142,7.381 15.205,7.354 15.258,7.301 C15.311,7.248 15.338,7.185 15.338,7.113 L15.338,5.506 C15.338,5.433 15.311,5.370 15.258,5.317 ZM15.258,1.031 C15.205,0.979 15.142,0.952 15.070,0.952 L4.891,0.952 C4.819,0.952 4.756,0.979 4.703,1.031 C4.650,1.085 4.624,1.147 4.624,1.220 L4.624,2.827 C4.624,2.900 4.650,2.962 4.703,3.015 C4.756,3.068 4.819,3.095 4.891,3.095 L15.070,3.095 C15.142,3.095 15.205,3.068 15.258,3.015 C15.311,2.962 15.338,2.900 15.338,2.827 L15.338,1.220 C15.338,1.147 15.311,1.085 15.258,1.031 Z"/>
</symbol><symbol id="phone">
<path fill-rule="evenodd" d="M12.098,10.013 C12.065,9.912 11.853,9.765 11.462,9.569 C11.356,9.508 11.206,9.424 11.010,9.318 C10.815,9.212 10.638,9.114 10.479,9.025 C10.320,8.936 10.170,8.849 10.031,8.766 C10.009,8.749 9.939,8.700 9.822,8.619 C9.704,8.538 9.605,8.478 9.525,8.439 C9.444,8.400 9.364,8.381 9.286,8.381 C9.174,8.381 9.035,8.460 8.867,8.619 C8.700,8.778 8.546,8.951 8.407,9.138 C8.267,9.325 8.120,9.498 7.963,9.657 C7.807,9.816 7.679,9.896 7.578,9.896 C7.528,9.896 7.465,9.882 7.390,9.854 C7.315,9.826 7.257,9.802 7.218,9.783 C7.179,9.763 7.112,9.724 7.018,9.665 C6.923,9.607 6.870,9.575 6.859,9.569 C6.094,9.145 5.438,8.660 4.891,8.113 C4.344,7.566 3.859,6.910 3.435,6.146 C3.429,6.134 3.397,6.082 3.339,5.987 C3.280,5.892 3.241,5.825 3.222,5.786 C3.202,5.747 3.178,5.689 3.150,5.614 C3.122,5.539 3.109,5.476 3.109,5.426 C3.109,5.325 3.188,5.197 3.347,5.041 C3.506,4.885 3.679,4.737 3.866,4.597 C4.053,4.458 4.226,4.304 4.385,4.137 C4.544,3.969 4.624,3.830 4.624,3.718 C4.624,3.640 4.604,3.561 4.565,3.480 C4.526,3.399 4.466,3.300 4.385,3.182 C4.304,3.065 4.255,2.996 4.239,2.973 C4.155,2.834 4.068,2.684 3.979,2.525 C3.890,2.366 3.792,2.189 3.686,1.994 C3.580,1.799 3.496,1.648 3.435,1.542 C3.240,1.151 3.092,0.939 2.991,0.906 C2.952,0.889 2.894,0.881 2.816,0.881 C2.665,0.881 2.468,0.909 2.225,0.964 C1.983,1.020 1.791,1.079 1.652,1.140 C1.373,1.257 1.077,1.598 0.765,2.161 C0.480,2.686 0.338,3.205 0.338,3.718 C0.338,3.869 0.348,4.017 0.367,4.162 C0.387,4.307 0.422,4.467 0.472,4.643 C0.522,4.819 0.562,4.950 0.593,5.037 C0.624,5.123 0.681,5.278 0.765,5.501 C0.848,5.724 0.899,5.861 0.915,5.911 C1.111,6.458 1.342,6.946 1.610,7.376 C2.051,8.085 2.654,8.821 3.418,9.586 C4.183,10.350 4.919,10.953 5.628,11.394 C6.058,11.662 6.546,11.893 7.093,12.089 C7.143,12.105 7.280,12.156 7.503,12.239 C7.726,12.323 7.881,12.380 7.968,12.411 C8.054,12.442 8.185,12.482 8.361,12.532 C8.537,12.583 8.697,12.617 8.842,12.637 C8.987,12.657 9.135,12.666 9.286,12.666 C9.799,12.666 10.318,12.524 10.843,12.239 C11.406,11.927 11.747,11.631 11.864,11.352 C11.925,11.213 11.984,11.021 12.040,10.779 C12.096,10.536 12.124,10.339 12.124,10.189 C12.124,10.110 12.115,10.052 12.098,10.013 L12.098,10.013 Z"/>
</symbol><symbol id="pin">
<path fill-rule="evenodd" d="M4.624,7.309 C4.032,7.309 3.527,7.100 3.109,6.681 C2.690,6.263 2.481,5.758 2.481,5.166 C2.481,4.575 2.690,4.070 3.109,3.651 C3.527,3.233 4.032,3.023 4.624,3.023 C5.215,3.023 5.720,3.233 6.139,3.651 C6.557,4.070 6.766,4.575 6.766,5.166 C6.766,5.758 6.557,6.263 6.139,6.681 C5.720,7.100 5.215,7.309 4.624,7.309 ZM7.654,2.136 C6.817,1.299 5.807,0.881 4.624,0.881 C3.440,0.881 2.430,1.299 1.593,2.136 C0.756,2.973 0.338,3.983 0.338,5.166 C0.338,5.775 0.430,6.274 0.614,6.665 L3.669,13.143 C3.753,13.328 3.883,13.473 4.059,13.579 C4.234,13.685 4.423,13.738 4.624,13.738 C4.824,13.738 5.013,13.685 5.189,13.579 C5.364,13.473 5.497,13.328 5.586,13.143 L8.633,6.665 C8.817,6.274 8.909,5.775 8.909,5.166 C8.909,3.983 8.491,2.973 7.654,2.136 Z"/>
</symbol><symbol id="pinterest">
<path fill-rule="evenodd" d="M0.418,5.627 C0.471,5.891 0.549,6.152 0.653,6.410 C0.757,6.669 0.905,6.898 1.096,7.096 C1.287,7.294 1.506,7.430 1.752,7.502 C1.825,7.517 1.866,7.524 1.876,7.524 C1.982,7.524 2.072,7.415 2.144,7.197 C2.217,6.980 2.253,6.803 2.253,6.668 C2.253,6.624 2.223,6.551 2.162,6.447 C2.102,6.343 2.037,6.233 1.966,6.117 C1.896,6.001 1.831,5.843 1.771,5.645 C1.710,5.447 1.680,5.241 1.680,5.028 C1.680,4.066 2.004,3.272 2.652,2.645 C3.300,2.019 4.108,1.706 5.075,1.706 C5.926,1.706 6.617,1.939 7.146,2.406 C7.676,2.873 7.941,3.524 7.941,4.361 C7.941,4.588 7.925,4.829 7.893,5.083 C7.862,5.337 7.814,5.605 7.748,5.888 C7.683,6.171 7.591,6.438 7.473,6.690 C7.354,6.941 7.219,7.171 7.066,7.379 C6.914,7.587 6.724,7.751 6.497,7.872 C6.270,7.993 6.023,8.054 5.757,8.054 C5.447,8.054 5.184,7.953 4.966,7.752 C4.749,7.552 4.640,7.299 4.640,6.994 C4.640,6.695 4.746,6.242 4.959,5.638 C5.172,5.033 5.278,4.571 5.278,4.252 C5.278,3.952 5.196,3.704 5.031,3.509 C4.867,3.313 4.637,3.215 4.342,3.215 C3.955,3.215 3.636,3.391 3.385,3.744 C3.133,4.097 3.008,4.475 3.008,4.876 C3.008,5.379 3.085,5.788 3.240,6.102 C3.206,6.247 3.080,6.738 2.862,7.575 C2.645,8.411 2.484,9.107 2.380,9.660 C2.276,10.214 2.224,10.714 2.224,11.158 C2.224,11.308 2.260,11.763 2.333,12.522 L2.398,12.595 L2.500,12.559 C2.679,12.317 2.829,12.108 2.949,11.931 C3.070,11.754 3.182,11.567 3.283,11.369 C3.385,11.171 3.462,11.019 3.515,10.915 C3.568,10.811 3.631,10.640 3.704,10.400 C3.776,10.161 3.826,9.989 3.853,9.885 C3.879,9.781 3.936,9.552 4.023,9.196 C4.110,8.841 4.178,8.569 4.226,8.380 C4.366,8.651 4.599,8.864 4.923,9.018 C5.247,9.173 5.573,9.251 5.902,9.251 C6.400,9.251 6.857,9.157 7.273,8.971 C7.689,8.785 8.040,8.536 8.325,8.224 C8.610,7.912 8.852,7.551 9.050,7.139 C9.249,6.728 9.394,6.300 9.486,5.855 C9.578,5.411 9.624,4.956 9.624,4.492 C9.624,3.718 9.418,3.024 9.007,2.410 C8.596,1.795 8.061,1.328 7.404,1.006 C6.746,0.684 6.035,0.523 5.271,0.523 C4.773,0.523 4.284,0.586 3.805,0.712 C3.327,0.838 2.879,1.026 2.463,1.278 C2.047,1.529 1.680,1.827 1.361,2.170 C1.042,2.514 0.791,2.916 0.610,3.378 C0.429,3.840 0.338,4.332 0.338,4.854 C0.338,5.106 0.364,5.363 0.418,5.627 Z"/>
</symbol><symbol id="rss">
<path fill-rule="evenodd" d="M1.731,7.881 C1.344,7.881 1.015,8.016 0.744,8.287 C0.473,8.558 0.338,8.887 0.338,9.273 C0.338,9.660 0.473,9.989 0.744,10.260 C1.015,10.531 1.344,10.666 1.731,10.666 C2.118,10.666 2.446,10.531 2.717,10.260 C2.988,9.989 3.124,9.660 3.124,9.273 C3.124,8.887 2.988,8.558 2.717,8.287 C2.446,8.016 2.118,7.881 1.731,7.881 ZM6.254,7.946 C5.927,7.240 5.489,6.613 4.937,6.067 C4.391,5.516 3.764,5.077 3.058,4.750 C2.352,4.424 1.612,4.229 0.838,4.166 L0.802,4.166 C0.676,4.166 0.572,4.207 0.490,4.290 C0.389,4.377 0.338,4.490 0.338,4.631 L0.338,5.610 C0.338,5.731 0.378,5.835 0.458,5.922 C0.537,6.009 0.638,6.057 0.759,6.067 C1.866,6.173 2.813,6.620 3.599,7.405 C4.385,8.191 4.831,9.138 4.937,10.245 C4.947,10.366 4.995,10.467 5.082,10.547 C5.169,10.626 5.273,10.666 5.394,10.666 L6.374,10.666 C6.514,10.666 6.627,10.615 6.715,10.514 C6.806,10.417 6.847,10.301 6.838,10.166 C6.775,9.392 6.580,8.652 6.254,7.946 ZM9.682,6.542 C9.164,5.384 8.453,4.355 7.549,3.455 C6.649,2.551 5.620,1.840 4.462,1.322 C3.304,0.805 2.091,0.515 0.824,0.452 L0.802,0.452 C0.676,0.452 0.570,0.495 0.483,0.583 C0.386,0.670 0.338,0.781 0.338,0.916 L0.338,1.954 C0.338,2.075 0.380,2.180 0.465,2.269 C0.549,2.359 0.652,2.406 0.773,2.411 C1.813,2.474 2.801,2.720 3.737,3.151 C4.672,3.581 5.485,4.141 6.174,4.830 C6.863,5.519 7.423,6.332 7.853,7.268 C8.284,8.203 8.528,9.191 8.586,10.231 C8.591,10.352 8.638,10.455 8.728,10.539 C8.817,10.624 8.925,10.666 9.050,10.666 L10.088,10.666 C10.223,10.666 10.335,10.618 10.422,10.521 C10.518,10.424 10.562,10.311 10.552,10.180 C10.489,8.913 10.199,7.700 9.682,6.542 Z"/>
</symbol><symbol id="search">
<path fill-rule="evenodd" d="M6.231,10.523 C5.198,10.523 4.315,10.157 3.581,9.423 C2.848,8.689 2.481,7.806 2.481,6.773 C2.481,5.741 2.848,4.858 3.581,4.124 C4.315,3.390 5.198,3.023 6.231,3.023 C7.263,3.023 8.146,3.390 8.880,4.124 C9.614,4.858 9.981,5.741 9.981,6.773 C9.981,7.806 9.614,8.689 8.880,9.423 C8.146,10.157 7.263,10.523 6.231,10.523 ZM13.957,12.984 L11.086,10.113 C11.777,9.114 12.124,8.001 12.124,6.773 C12.124,5.975 11.969,5.212 11.659,4.484 C11.349,3.756 10.931,3.128 10.403,2.601 C9.876,2.073 9.248,1.655 8.520,1.345 C7.792,1.035 7.029,0.881 6.231,0.881 C5.433,0.881 4.670,1.035 3.941,1.345 C3.213,1.655 2.585,2.073 2.058,2.601 C1.531,3.128 1.112,3.756 0.802,4.484 C0.493,5.212 0.338,5.975 0.338,6.773 C0.338,7.571 0.493,8.334 0.802,9.063 C1.112,9.791 1.531,10.419 2.058,10.946 C2.585,11.473 3.213,11.892 3.941,12.202 C4.670,12.511 5.433,12.666 6.231,12.666 C7.458,12.666 8.572,12.320 9.571,11.628 L12.442,14.491 C12.643,14.703 12.894,14.809 13.195,14.809 C13.485,14.809 13.736,14.703 13.948,14.491 C14.160,14.279 14.266,14.028 14.266,13.738 C14.266,13.442 14.163,13.191 13.957,12.984 L13.957,12.984 Z"/>
</symbol><symbol id="twitter">
<path fill-rule="evenodd" d="M10.741,1.846 C11.249,1.541 11.592,1.111 11.771,0.555 C11.307,0.830 10.811,1.019 10.284,1.120 C9.819,0.627 9.249,0.381 8.572,0.381 C7.924,0.381 7.371,0.609 6.914,1.066 C6.457,1.523 6.228,2.076 6.228,2.724 C6.228,2.898 6.248,3.077 6.287,3.261 C5.329,3.212 4.431,2.972 3.591,2.539 C2.752,2.106 2.040,1.529 1.455,0.809 C1.242,1.171 1.136,1.566 1.136,1.991 C1.136,2.393 1.230,2.765 1.419,3.108 C1.607,3.452 1.861,3.730 2.180,3.942 C1.803,3.928 1.450,3.829 1.121,3.645 L1.121,3.674 C1.121,4.240 1.299,4.737 1.655,5.165 C2.010,5.593 2.459,5.863 3.000,5.974 C2.797,6.027 2.592,6.054 2.384,6.054 C2.248,6.054 2.101,6.042 1.941,6.017 C2.091,6.486 2.367,6.872 2.768,7.174 C3.169,7.477 3.624,7.633 4.132,7.642 C3.281,8.310 2.311,8.643 1.223,8.643 C1.015,8.643 0.826,8.634 0.657,8.614 C1.745,9.316 2.945,9.666 4.255,9.666 C5.087,9.666 5.868,9.535 6.598,9.271 C7.329,9.007 7.953,8.654 8.470,8.212 C8.988,7.769 9.434,7.260 9.809,6.685 C10.183,6.109 10.463,5.508 10.646,4.882 C10.830,4.256 10.922,3.628 10.922,2.999 C10.922,2.864 10.920,2.762 10.915,2.695 C11.374,2.361 11.766,1.957 12.090,1.483 C11.640,1.677 11.191,1.798 10.741,1.846 L10.741,1.846 Z"/>
</symbol><symbol id="user" viewBox="0 0 448 512"><path d="M224 256c70.7 0 128-57.3 128-128S294.7 0 224 0 96 57.3 96 128s57.3 128 128 128zm89.6 32h-16.7c-22.2 10.2-46.9 16-72.9 16s-50.6-5.8-72.9-16h-16.7C60.2 288 0 348.2 0 422.4V464c0 26.5 21.5 48 48 48h352c26.5 0 48-21.5 48-48v-41.6c0-74.2-60.2-134.4-134.4-134.4z"/></symbol><symbol id="vimeo">
<path fill-rule="evenodd" d="M11.024,0.916 C9.384,0.863 8.274,1.787 7.694,3.687 C8.003,3.562 8.296,3.499 8.572,3.499 C9.162,3.499 9.425,3.835 9.362,4.507 C9.324,4.918 9.060,5.513 8.572,6.292 C8.073,7.071 7.701,7.460 7.454,7.460 C7.140,7.460 6.850,6.858 6.584,5.653 C6.478,5.238 6.318,4.336 6.105,2.947 C5.994,2.275 5.798,1.783 5.518,1.471 C5.237,1.159 4.867,1.025 4.408,1.069 C3.996,1.107 3.414,1.460 2.659,2.128 C2.437,2.321 2.122,2.601 1.716,2.966 C1.310,3.331 1.049,3.564 0.933,3.666 L1.491,4.377 C2.018,4.009 2.326,3.825 2.413,3.825 C2.824,3.825 3.203,4.459 3.552,5.726 C3.977,7.283 4.296,8.449 4.509,9.223 C4.983,10.495 5.563,11.131 6.250,11.131 C7.358,11.131 8.717,10.088 10.327,8.004 C11.884,5.997 12.687,4.423 12.736,3.281 C12.808,1.743 12.238,0.955 11.024,0.916 L11.024,0.916 Z"/>
</symbol><symbol id="youtube">
<path fill-rule="evenodd" d="M7.099,9.062 C6.988,9.062 6.879,9.115 6.773,9.221 L6.773,11.405 C6.879,11.512 6.988,11.565 7.099,11.565 C7.288,11.565 7.382,11.403 7.382,11.079 L7.382,9.548 C7.382,9.224 7.288,9.062 7.099,9.062 L7.099,9.062 ZM9.508,9.062 C9.290,9.062 9.181,9.226 9.181,9.555 L9.181,9.889 L9.834,9.889 L9.834,9.555 C9.834,9.226 9.725,9.062 9.508,9.062 ZM2.826,12.102 L2.101,12.102 L2.101,7.974 L1.339,7.974 L1.339,7.292 L3.602,7.292 L3.602,7.974 L2.826,7.974 L2.826,12.102 ZM4.915,11.710 C4.654,12.005 4.408,12.152 4.175,12.152 C3.953,12.152 3.813,12.063 3.755,11.884 C3.716,11.768 3.697,11.591 3.697,11.354 L3.697,8.518 L4.342,8.518 L4.342,11.158 C4.342,11.313 4.345,11.398 4.350,11.412 C4.364,11.514 4.415,11.565 4.502,11.565 C4.633,11.565 4.770,11.463 4.915,11.260 L4.915,8.518 L5.561,8.518 L5.561,12.102 L4.915,12.102 L4.915,11.710 ZM7.962,11.753 C7.880,12.019 7.708,12.152 7.447,12.152 C7.215,12.152 6.990,12.019 6.773,11.753 L6.773,12.102 L6.127,12.102 L6.127,7.292 L6.773,7.292 L6.773,8.866 C6.980,8.605 7.205,8.474 7.447,8.474 C7.708,8.474 7.880,8.610 7.962,8.881 C8.006,9.006 8.028,9.246 8.028,9.599 L8.028,11.028 C8.028,11.381 8.006,11.623 7.962,11.753 L7.962,11.753 ZM10.465,11.376 C10.451,11.507 10.400,11.637 10.313,11.768 C10.139,12.024 9.877,12.152 9.529,12.152 C9.196,12.152 8.934,12.029 8.746,11.782 C8.605,11.603 8.535,11.323 8.535,10.941 L8.535,9.686 C8.535,9.304 8.603,9.023 8.739,8.844 C8.927,8.598 9.186,8.474 9.515,8.474 C9.839,8.474 10.095,8.598 10.284,8.844 C10.414,9.023 10.480,9.304 10.480,9.686 L10.480,10.433 L9.181,10.433 L9.181,11.064 C9.181,11.398 9.292,11.565 9.515,11.565 C9.674,11.565 9.771,11.478 9.805,11.304 C9.815,11.255 9.819,11.108 9.819,10.861 L10.480,10.861 L10.480,10.955 C10.480,11.192 10.475,11.333 10.465,11.376 L10.465,11.376 ZM5.757,4.840 C5.549,4.840 5.445,4.671 5.445,4.332 L5.445,2.809 C5.445,2.475 5.549,2.308 5.757,2.308 C5.965,2.308 6.069,2.475 6.069,2.809 L6.069,4.332 C6.069,4.671 5.965,4.840 5.757,4.840 ZM11.096,7.241 C11.033,6.956 10.894,6.716 10.679,6.523 C10.464,6.329 10.216,6.216 9.936,6.182 C9.046,6.085 7.704,6.037 5.909,6.037 C4.115,6.037 2.775,6.085 1.890,6.182 C1.605,6.216 1.356,6.329 1.143,6.523 C0.930,6.716 0.790,6.956 0.722,7.241 C0.597,7.802 0.534,8.648 0.534,9.780 C0.534,10.931 0.597,11.777 0.722,12.319 C0.785,12.604 0.924,12.844 1.139,13.037 C1.355,13.231 1.603,13.342 1.883,13.371 C2.773,13.473 4.115,13.523 5.909,13.523 C7.704,13.523 9.046,13.473 9.936,13.371 C10.216,13.342 10.463,13.231 10.675,13.037 C10.888,12.844 11.028,12.604 11.096,12.319 C11.222,11.758 11.285,10.912 11.285,9.780 C11.285,8.629 11.222,7.783 11.096,7.241 L11.096,7.241 ZM3.552,2.431 L3.037,0.523 L2.268,0.523 C2.403,0.930 2.560,1.382 2.739,1.880 C2.966,2.547 3.114,3.060 3.182,3.418 L3.182,5.384 L3.907,5.384 L3.907,3.418 L4.785,0.523 L4.045,0.523 L3.552,2.431 ZM6.526,2.090 C6.342,1.844 6.086,1.720 5.757,1.720 C5.433,1.720 5.179,1.844 4.995,2.090 C4.860,2.269 4.792,2.552 4.792,2.939 L4.792,4.209 C4.792,4.596 4.860,4.881 4.995,5.065 C5.179,5.311 5.433,5.435 5.757,5.435 C6.086,5.435 6.342,5.311 6.526,5.065 C6.661,4.886 6.729,4.600 6.729,4.209 L6.729,2.939 C6.729,2.552 6.661,2.269 6.526,2.090 L6.526,2.090 ZM8.499,1.764 L8.499,4.528 C8.354,4.736 8.216,4.840 8.086,4.840 C7.999,4.840 7.948,4.787 7.933,4.680 C7.928,4.671 7.926,4.586 7.926,4.426 L7.926,1.764 L7.266,1.764 L7.266,4.622 C7.266,4.869 7.285,5.050 7.324,5.166 C7.387,5.345 7.529,5.435 7.752,5.435 C7.994,5.435 8.243,5.285 8.499,4.985 L8.499,5.384 L9.159,5.384 L9.159,1.764 L8.499,1.764 Z"/>
</symbol></svg>