<svg
 xmlns="http://www.w3.org/2000/svg"
 xmlns:xlink="http://www.w3.org/1999/xlink"
 width="12px" height="12px">
<path fill-rule="evenodd"  fill="rgb(241, 14, 52)"
 d="M6.773,3.303 C6.729,3.259 6.673,3.238 6.606,3.238 L6.141,3.238 C6.074,3.238 6.018,3.259 5.975,3.303 C5.931,3.346 5.909,3.402 5.909,3.470 L5.909,6.023 L4.284,6.023 C4.217,6.023 4.161,6.045 4.117,6.089 C4.074,6.132 4.052,6.188 4.052,6.256 L4.052,6.720 C4.052,6.788 4.074,6.843 4.117,6.887 C4.161,6.930 4.217,6.952 4.284,6.952 L6.606,6.952 C6.673,6.952 6.729,6.930 6.773,6.887 C6.816,6.843 6.838,6.788 6.838,6.720 L6.838,3.470 C6.838,3.402 6.816,3.346 6.773,3.303 ZM7.890,9.440 C7.285,9.793 6.625,9.970 5.909,9.970 C5.193,9.970 4.533,9.793 3.929,9.440 C3.324,9.087 2.845,8.608 2.492,8.004 C2.139,7.399 1.963,6.739 1.963,6.023 C1.963,5.308 2.139,4.648 2.492,4.043 C2.845,3.438 3.324,2.960 3.929,2.607 C4.533,2.254 5.193,2.077 5.909,2.077 C6.625,2.077 7.285,2.254 7.890,2.607 C8.494,2.960 8.973,3.438 9.326,4.043 C9.679,4.648 9.856,5.308 9.856,6.023 C9.856,6.739 9.679,7.399 9.326,8.004 C8.973,8.608 8.494,9.087 7.890,9.440 ZM8.706,1.199 C7.852,0.701 6.920,0.452 5.909,0.452 C4.898,0.452 3.966,0.701 3.113,1.199 C2.259,1.697 1.583,2.373 1.085,3.227 C0.587,4.080 0.338,5.013 0.338,6.023 C0.338,7.034 0.587,7.966 1.085,8.820 C1.583,9.674 2.259,10.350 3.113,10.848 C3.966,11.346 4.898,11.595 5.909,11.595 C6.920,11.595 7.852,11.346 8.706,10.848 C9.559,10.350 10.235,9.674 10.734,8.820 C11.232,7.966 11.481,7.034 11.481,6.023 C11.481,5.013 11.232,4.080 10.734,3.227 C10.235,2.373 9.559,1.697 8.706,1.199 Z"/>
</svg>
