<svg
 xmlns="http://www.w3.org/2000/svg"
 xmlns:xlink="http://www.w3.org/1999/xlink"
 width="13px" height="13px">
<path fill-rule="evenodd"  fill="rgb(241, 14, 52)"
 d="M12.098,10.013 C12.065,9.912 11.853,9.765 11.462,9.569 C11.356,9.508 11.206,9.424 11.010,9.318 C10.815,9.212 10.638,9.114 10.479,9.025 C10.320,8.936 10.170,8.849 10.031,8.766 C10.009,8.749 9.939,8.700 9.822,8.619 C9.704,8.538 9.605,8.478 9.525,8.439 C9.444,8.400 9.364,8.381 9.286,8.381 C9.174,8.381 9.035,8.460 8.867,8.619 C8.700,8.778 8.546,8.951 8.407,9.138 C8.267,9.325 8.120,9.498 7.963,9.657 C7.807,9.816 7.679,9.896 7.578,9.896 C7.528,9.896 7.465,9.882 7.390,9.854 C7.315,9.826 7.257,9.802 7.218,9.783 C7.179,9.763 7.112,9.724 7.018,9.665 C6.923,9.607 6.870,9.575 6.859,9.569 C6.094,9.145 5.438,8.660 4.891,8.113 C4.344,7.566 3.859,6.910 3.435,6.146 C3.429,6.134 3.397,6.082 3.339,5.987 C3.280,5.892 3.241,5.825 3.222,5.786 C3.202,5.747 3.178,5.689 3.150,5.614 C3.122,5.539 3.109,5.476 3.109,5.426 C3.109,5.325 3.188,5.197 3.347,5.041 C3.506,4.885 3.679,4.737 3.866,4.597 C4.053,4.458 4.226,4.304 4.385,4.137 C4.544,3.969 4.624,3.830 4.624,3.718 C4.624,3.640 4.604,3.561 4.565,3.480 C4.526,3.399 4.466,3.300 4.385,3.182 C4.304,3.065 4.255,2.996 4.239,2.973 C4.155,2.834 4.068,2.684 3.979,2.525 C3.890,2.366 3.792,2.189 3.686,1.994 C3.580,1.799 3.496,1.648 3.435,1.542 C3.240,1.151 3.092,0.939 2.991,0.906 C2.952,0.889 2.894,0.881 2.816,0.881 C2.665,0.881 2.468,0.909 2.225,0.964 C1.983,1.020 1.791,1.079 1.652,1.140 C1.373,1.257 1.077,1.598 0.765,2.161 C0.480,2.686 0.338,3.205 0.338,3.718 C0.338,3.869 0.348,4.017 0.367,4.162 C0.387,4.307 0.422,4.467 0.472,4.643 C0.522,4.819 0.562,4.950 0.593,5.037 C0.624,5.123 0.681,5.278 0.765,5.501 C0.848,5.724 0.899,5.861 0.915,5.911 C1.111,6.458 1.342,6.946 1.610,7.376 C2.051,8.085 2.654,8.821 3.418,9.586 C4.183,10.350 4.919,10.953 5.628,11.394 C6.058,11.662 6.546,11.893 7.093,12.089 C7.143,12.105 7.280,12.156 7.503,12.239 C7.726,12.323 7.881,12.380 7.968,12.411 C8.054,12.442 8.185,12.482 8.361,12.532 C8.537,12.583 8.697,12.617 8.842,12.637 C8.987,12.657 9.135,12.666 9.286,12.666 C9.799,12.666 10.318,12.524 10.843,12.239 C11.406,11.927 11.747,11.631 11.864,11.352 C11.925,11.213 11.984,11.021 12.040,10.779 C12.096,10.536 12.124,10.339 12.124,10.189 C12.124,10.110 12.115,10.052 12.098,10.013 L12.098,10.013 Z"/>
</svg>
