<svg
 xmlns="http://www.w3.org/2000/svg"
 xmlns:xlink="http://www.w3.org/1999/xlink"
 width="10px" height="13px">
<path fill-rule="evenodd"  fill="rgb(241, 14, 52)"
 d="M0.418,5.627 C0.471,5.891 0.549,6.152 0.653,6.410 C0.757,6.669 0.905,6.898 1.096,7.096 C1.287,7.294 1.506,7.430 1.752,7.502 C1.825,7.517 1.866,7.524 1.876,7.524 C1.982,7.524 2.072,7.415 2.144,7.197 C2.217,6.980 2.253,6.803 2.253,6.668 C2.253,6.624 2.223,6.551 2.162,6.447 C2.102,6.343 2.037,6.233 1.966,6.117 C1.896,6.001 1.831,5.843 1.771,5.645 C1.710,5.447 1.680,5.241 1.680,5.028 C1.680,4.066 2.004,3.272 2.652,2.645 C3.300,2.019 4.108,1.706 5.075,1.706 C5.926,1.706 6.617,1.939 7.146,2.406 C7.676,2.873 7.941,3.524 7.941,4.361 C7.941,4.588 7.925,4.829 7.893,5.083 C7.862,5.337 7.814,5.605 7.748,5.888 C7.683,6.171 7.591,6.438 7.473,6.690 C7.354,6.941 7.219,7.171 7.066,7.379 C6.914,7.587 6.724,7.751 6.497,7.872 C6.270,7.993 6.023,8.054 5.757,8.054 C5.447,8.054 5.184,7.953 4.966,7.752 C4.749,7.552 4.640,7.299 4.640,6.994 C4.640,6.695 4.746,6.242 4.959,5.638 C5.172,5.033 5.278,4.571 5.278,4.252 C5.278,3.952 5.196,3.704 5.031,3.509 C4.867,3.313 4.637,3.215 4.342,3.215 C3.955,3.215 3.636,3.391 3.385,3.744 C3.133,4.097 3.008,4.475 3.008,4.876 C3.008,5.379 3.085,5.788 3.240,6.102 C3.206,6.247 3.080,6.738 2.862,7.575 C2.645,8.411 2.484,9.107 2.380,9.660 C2.276,10.214 2.224,10.714 2.224,11.158 C2.224,11.308 2.260,11.763 2.333,12.522 L2.398,12.595 L2.500,12.559 C2.679,12.317 2.829,12.108 2.949,11.931 C3.070,11.754 3.182,11.567 3.283,11.369 C3.385,11.171 3.462,11.019 3.515,10.915 C3.568,10.811 3.631,10.640 3.704,10.400 C3.776,10.161 3.826,9.989 3.853,9.885 C3.879,9.781 3.936,9.552 4.023,9.196 C4.110,8.841 4.178,8.569 4.226,8.380 C4.366,8.651 4.599,8.864 4.923,9.018 C5.247,9.173 5.573,9.251 5.902,9.251 C6.400,9.251 6.857,9.157 7.273,8.971 C7.689,8.785 8.040,8.536 8.325,8.224 C8.610,7.912 8.852,7.551 9.050,7.139 C9.249,6.728 9.394,6.300 9.486,5.855 C9.578,5.411 9.624,4.956 9.624,4.492 C9.624,3.718 9.418,3.024 9.007,2.410 C8.596,1.795 8.061,1.328 7.404,1.006 C6.746,0.684 6.035,0.523 5.271,0.523 C4.773,0.523 4.284,0.586 3.805,0.712 C3.327,0.838 2.879,1.026 2.463,1.278 C2.047,1.529 1.680,1.827 1.361,2.170 C1.042,2.514 0.791,2.916 0.610,3.378 C0.429,3.840 0.338,4.332 0.338,4.854 C0.338,5.106 0.364,5.363 0.418,5.627 Z"/>
</svg>
