<svg
 xmlns="http://www.w3.org/2000/svg"
 xmlns:xlink="http://www.w3.org/1999/xlink"
 width="11px" height="11px">
<path fill-rule="evenodd"
 d="M1.731,7.881 C1.344,7.881 1.015,8.016 0.744,8.287 C0.473,8.558 0.338,8.887 0.338,9.273 C0.338,9.660 0.473,9.989 0.744,10.260 C1.015,10.531 1.344,10.666 1.731,10.666 C2.118,10.666 2.446,10.531 2.717,10.260 C2.988,9.989 3.124,9.660 3.124,9.273 C3.124,8.887 2.988,8.558 2.717,8.287 C2.446,8.016 2.118,7.881 1.731,7.881 ZM6.254,7.946 C5.927,7.240 5.489,6.613 4.937,6.067 C4.391,5.516 3.764,5.077 3.058,4.750 C2.352,4.424 1.612,4.229 0.838,4.166 L0.802,4.166 C0.676,4.166 0.572,4.207 0.490,4.290 C0.389,4.377 0.338,4.490 0.338,4.631 L0.338,5.610 C0.338,5.731 0.378,5.835 0.458,5.922 C0.537,6.009 0.638,6.057 0.759,6.067 C1.866,6.173 2.813,6.620 3.599,7.405 C4.385,8.191 4.831,9.138 4.937,10.245 C4.947,10.366 4.995,10.467 5.082,10.547 C5.169,10.626 5.273,10.666 5.394,10.666 L6.374,10.666 C6.514,10.666 6.627,10.615 6.715,10.514 C6.806,10.417 6.847,10.301 6.838,10.166 C6.775,9.392 6.580,8.652 6.254,7.946 ZM9.682,6.542 C9.164,5.384 8.453,4.355 7.549,3.455 C6.649,2.551 5.620,1.840 4.462,1.322 C3.304,0.805 2.091,0.515 0.824,0.452 L0.802,0.452 C0.676,0.452 0.570,0.495 0.483,0.583 C0.386,0.670 0.338,0.781 0.338,0.916 L0.338,1.954 C0.338,2.075 0.380,2.180 0.465,2.269 C0.549,2.359 0.652,2.406 0.773,2.411 C1.813,2.474 2.801,2.720 3.737,3.151 C4.672,3.581 5.485,4.141 6.174,4.830 C6.863,5.519 7.423,6.332 7.853,7.268 C8.284,8.203 8.528,9.191 8.586,10.231 C8.591,10.352 8.638,10.455 8.728,10.539 C8.817,10.624 8.925,10.666 9.050,10.666 L10.088,10.666 C10.223,10.666 10.335,10.618 10.422,10.521 C10.518,10.424 10.562,10.311 10.552,10.180 C10.489,8.913 10.199,7.700 9.682,6.542 Z"/>
</svg>
