<svg
 xmlns="http://www.w3.org/2000/svg"
 xmlns:xlink="http://www.w3.org/1999/xlink"
 width="12px" height="14px">
<path fill-rule="evenodd"
 d="M7.099,9.062 C6.988,9.062 6.879,9.115 6.773,9.221 L6.773,11.405 C6.879,11.512 6.988,11.565 7.099,11.565 C7.288,11.565 7.382,11.403 7.382,11.079 L7.382,9.548 C7.382,9.224 7.288,9.062 7.099,9.062 L7.099,9.062 ZM9.508,9.062 C9.290,9.062 9.181,9.226 9.181,9.555 L9.181,9.889 L9.834,9.889 L9.834,9.555 C9.834,9.226 9.725,9.062 9.508,9.062 ZM2.826,12.102 L2.101,12.102 L2.101,7.974 L1.339,7.974 L1.339,7.292 L3.602,7.292 L3.602,7.974 L2.826,7.974 L2.826,12.102 ZM4.915,11.710 C4.654,12.005 4.408,12.152 4.175,12.152 C3.953,12.152 3.813,12.063 3.755,11.884 C3.716,11.768 3.697,11.591 3.697,11.354 L3.697,8.518 L4.342,8.518 L4.342,11.158 C4.342,11.313 4.345,11.398 4.350,11.412 C4.364,11.514 4.415,11.565 4.502,11.565 C4.633,11.565 4.770,11.463 4.915,11.260 L4.915,8.518 L5.561,8.518 L5.561,12.102 L4.915,12.102 L4.915,11.710 ZM7.962,11.753 C7.880,12.019 7.708,12.152 7.447,12.152 C7.215,12.152 6.990,12.019 6.773,11.753 L6.773,12.102 L6.127,12.102 L6.127,7.292 L6.773,7.292 L6.773,8.866 C6.980,8.605 7.205,8.474 7.447,8.474 C7.708,8.474 7.880,8.610 7.962,8.881 C8.006,9.006 8.028,9.246 8.028,9.599 L8.028,11.028 C8.028,11.381 8.006,11.623 7.962,11.753 L7.962,11.753 ZM10.465,11.376 C10.451,11.507 10.400,11.637 10.313,11.768 C10.139,12.024 9.877,12.152 9.529,12.152 C9.196,12.152 8.934,12.029 8.746,11.782 C8.605,11.603 8.535,11.323 8.535,10.941 L8.535,9.686 C8.535,9.304 8.603,9.023 8.739,8.844 C8.927,8.598 9.186,8.474 9.515,8.474 C9.839,8.474 10.095,8.598 10.284,8.844 C10.414,9.023 10.480,9.304 10.480,9.686 L10.480,10.433 L9.181,10.433 L9.181,11.064 C9.181,11.398 9.292,11.565 9.515,11.565 C9.674,11.565 9.771,11.478 9.805,11.304 C9.815,11.255 9.819,11.108 9.819,10.861 L10.480,10.861 L10.480,10.955 C10.480,11.192 10.475,11.333 10.465,11.376 L10.465,11.376 ZM5.757,4.840 C5.549,4.840 5.445,4.671 5.445,4.332 L5.445,2.809 C5.445,2.475 5.549,2.308 5.757,2.308 C5.965,2.308 6.069,2.475 6.069,2.809 L6.069,4.332 C6.069,4.671 5.965,4.840 5.757,4.840 ZM11.096,7.241 C11.033,6.956 10.894,6.716 10.679,6.523 C10.464,6.329 10.216,6.216 9.936,6.182 C9.046,6.085 7.704,6.037 5.909,6.037 C4.115,6.037 2.775,6.085 1.890,6.182 C1.605,6.216 1.356,6.329 1.143,6.523 C0.930,6.716 0.790,6.956 0.722,7.241 C0.597,7.802 0.534,8.648 0.534,9.780 C0.534,10.931 0.597,11.777 0.722,12.319 C0.785,12.604 0.924,12.844 1.139,13.037 C1.355,13.231 1.603,13.342 1.883,13.371 C2.773,13.473 4.115,13.523 5.909,13.523 C7.704,13.523 9.046,13.473 9.936,13.371 C10.216,13.342 10.463,13.231 10.675,13.037 C10.888,12.844 11.028,12.604 11.096,12.319 C11.222,11.758 11.285,10.912 11.285,9.780 C11.285,8.629 11.222,7.783 11.096,7.241 L11.096,7.241 ZM3.552,2.431 L3.037,0.523 L2.268,0.523 C2.403,0.930 2.560,1.382 2.739,1.880 C2.966,2.547 3.114,3.060 3.182,3.418 L3.182,5.384 L3.907,5.384 L3.907,3.418 L4.785,0.523 L4.045,0.523 L3.552,2.431 ZM6.526,2.090 C6.342,1.844 6.086,1.720 5.757,1.720 C5.433,1.720 5.179,1.844 4.995,2.090 C4.860,2.269 4.792,2.552 4.792,2.939 L4.792,4.209 C4.792,4.596 4.860,4.881 4.995,5.065 C5.179,5.311 5.433,5.435 5.757,5.435 C6.086,5.435 6.342,5.311 6.526,5.065 C6.661,4.886 6.729,4.600 6.729,4.209 L6.729,2.939 C6.729,2.552 6.661,2.269 6.526,2.090 L6.526,2.090 ZM8.499,1.764 L8.499,4.528 C8.354,4.736 8.216,4.840 8.086,4.840 C7.999,4.840 7.948,4.787 7.933,4.680 C7.928,4.671 7.926,4.586 7.926,4.426 L7.926,1.764 L7.266,1.764 L7.266,4.622 C7.266,4.869 7.285,5.050 7.324,5.166 C7.387,5.345 7.529,5.435 7.752,5.435 C7.994,5.435 8.243,5.285 8.499,4.985 L8.499,5.384 L9.159,5.384 L9.159,1.764 L8.499,1.764 Z"/>
</svg>
