<svg
 xmlns="http://www.w3.org/2000/svg"
 xmlns:xlink="http://www.w3.org/1999/xlink" viewBox="0 0 178 63">
<path fill-rule="evenodd"  fill="rgb(255, 255, 255)"
 d="M142.167,50.434 C140.472,50.434 139.021,51.038 137.813,52.247 C136.604,53.455 136.000,54.906 136.000,56.601 C136.000,58.295 136.604,59.740 137.813,60.936 C139.021,62.132 140.472,62.730 142.167,62.730 C143.861,62.730 145.306,62.132 146.502,60.936 C147.698,59.740 148.296,58.295 148.296,56.601 C148.296,54.906 147.698,53.455 146.502,52.247 C145.306,51.038 143.861,50.434 142.167,50.434 ZM114.136,50.434 C112.441,50.434 110.997,51.038 109.801,52.247 C108.605,53.455 108.007,54.906 108.007,56.601 C108.007,58.295 108.605,59.740 109.801,60.936 C110.997,62.132 112.441,62.730 114.136,62.730 C115.830,62.730 117.281,62.132 118.490,60.936 C119.698,59.740 120.303,58.295 120.303,56.601 C120.303,54.906 119.698,53.455 118.490,52.247 C117.281,51.038 115.830,50.434 114.136,50.434 ZM92.702,2.987 C93.287,3.997 93.786,4.844 94.197,5.529 C94.608,6.214 95.237,7.080 96.084,8.126 C96.931,9.173 97.778,10.064 98.626,10.799 C99.473,11.534 100.612,12.363 102.046,13.284 C103.478,14.206 105.004,14.985 106.624,15.620 C108.243,16.255 110.230,16.897 112.585,17.545 C114.940,18.193 117.487,18.703 120.228,19.077 C122.969,19.451 126.158,19.737 129.796,19.937 C133.433,20.136 137.345,20.211 141.531,20.161 C145.941,20.086 149.728,20.149 152.893,20.348 C156.057,20.547 158.598,20.840 160.517,21.226 C162.436,21.613 163.887,22.123 164.871,22.758 C165.855,23.394 166.422,24.085 166.572,24.833 C166.721,25.580 166.559,26.453 166.086,27.449 C165.612,28.446 164.940,29.448 164.068,30.457 C163.195,31.467 162.162,32.606 160.966,33.877 C159.770,35.148 158.593,36.375 157.434,37.558 C156.275,38.742 155.104,40.057 153.921,41.501 C152.737,42.947 151.784,44.305 151.062,45.575 C153.578,43.333 157.141,40.256 161.751,36.344 C163.669,34.724 165.400,33.242 166.946,31.896 C168.490,30.551 169.936,29.249 171.281,27.991 C172.627,26.733 173.741,25.599 174.626,24.590 C175.510,23.581 176.214,22.628 176.738,21.731 C177.261,20.834 177.504,20.036 177.466,19.339 C177.429,18.641 177.130,18.000 176.569,17.414 C176.009,16.829 175.124,16.336 173.916,15.938 C172.707,15.539 171.162,15.197 169.282,14.910 C167.400,14.624 165.145,14.418 162.517,14.293 C159.888,14.169 156.842,14.106 153.379,14.106 C147.997,14.106 143.356,14.075 139.457,14.013 C135.557,13.951 131.770,13.832 128.095,13.658 C124.420,13.484 121.305,13.253 118.752,12.966 C116.197,12.680 113.706,12.288 111.277,11.789 C108.848,11.291 106.779,10.724 105.073,10.089 C103.366,9.453 101.672,8.668 99.990,7.734 C98.308,6.800 96.800,5.778 95.468,4.669 C94.134,3.561 92.758,2.259 91.338,0.764 C91.661,1.237 92.116,1.978 92.702,2.987 Z"/>
<path fill-rule="evenodd"  fill="rgb(241, 14, 52)"
 d="M78.392,29.663 L78.067,32.313 L75.167,32.313 L74.542,37.400 C74.500,37.742 74.467,38.011 74.442,38.207 C74.417,38.403 74.398,38.553 74.386,38.657 C74.373,38.761 74.367,38.832 74.367,38.869 C74.367,38.907 74.367,38.930 74.367,38.938 C74.367,39.180 74.423,39.382 74.536,39.544 C74.648,39.707 74.825,39.788 75.067,39.788 C75.200,39.788 75.311,39.774 75.398,39.744 C75.486,39.715 75.563,39.682 75.629,39.644 C75.696,39.607 75.759,39.574 75.817,39.544 C75.875,39.515 75.942,39.500 76.017,39.500 C76.134,39.500 76.219,39.528 76.273,39.582 C76.327,39.636 76.384,39.721 76.442,39.838 L77.292,41.675 C76.775,42.050 76.221,42.332 75.629,42.519 C75.038,42.707 74.442,42.800 73.842,42.800 C73.342,42.800 72.892,42.732 72.492,42.594 C72.092,42.457 71.748,42.257 71.461,41.994 C71.173,41.732 70.948,41.417 70.786,41.050 C70.623,40.684 70.534,40.267 70.517,39.800 C70.517,39.742 70.517,39.671 70.517,39.588 C70.517,39.505 70.523,39.386 70.536,39.232 C70.548,39.078 70.569,38.874 70.598,38.619 C70.627,38.365 70.667,38.030 70.717,37.613 L71.379,32.313 L70.342,32.313 C70.167,32.313 70.021,32.249 69.904,32.119 C69.788,31.990 69.750,31.800 69.792,31.550 L69.967,30.038 L71.929,29.638 L73.017,26.475 C73.159,26.075 73.442,25.875 73.867,25.875 L75.967,25.875 L75.492,29.663 L78.392,29.663 ZM67.011,35.750 C66.431,36.134 65.652,36.459 64.673,36.725 C63.694,36.992 62.463,37.200 60.980,37.350 C60.996,38.234 61.190,38.880 61.561,39.288 C61.931,39.696 62.480,39.900 63.205,39.900 C63.546,39.900 63.842,39.871 64.092,39.813 C64.342,39.755 64.561,39.680 64.748,39.588 C64.936,39.496 65.105,39.400 65.255,39.300 C65.405,39.200 65.548,39.105 65.686,39.013 C65.823,38.921 65.967,38.846 66.117,38.788 C66.267,38.730 66.438,38.700 66.630,38.700 C66.755,38.700 66.875,38.732 66.992,38.794 C67.109,38.857 67.213,38.938 67.305,39.038 L68.305,40.200 C67.846,40.650 67.398,41.040 66.961,41.369 C66.523,41.699 66.073,41.969 65.611,42.182 C65.148,42.394 64.656,42.550 64.136,42.650 C63.615,42.750 63.046,42.800 62.430,42.800 C61.663,42.800 60.959,42.669 60.317,42.407 C59.675,42.144 59.123,41.774 58.661,41.294 C58.198,40.815 57.840,40.238 57.586,39.563 C57.331,38.888 57.205,38.138 57.205,37.313 C57.205,36.621 57.281,35.946 57.436,35.288 C57.590,34.630 57.811,34.011 58.098,33.432 C58.386,32.853 58.738,32.319 59.155,31.832 C59.571,31.344 60.040,30.925 60.561,30.575 C61.081,30.225 61.652,29.953 62.273,29.757 C62.894,29.561 63.555,29.463 64.255,29.463 C64.946,29.463 65.561,29.563 66.098,29.763 C66.636,29.963 67.088,30.224 67.455,30.544 C67.821,30.865 68.100,31.225 68.292,31.625 C68.484,32.025 68.580,32.425 68.580,32.825 C68.580,33.417 68.463,33.957 68.230,34.444 C67.996,34.932 67.590,35.367 67.011,35.750 ZM64.830,32.363 C64.663,32.171 64.396,32.075 64.030,32.075 C63.388,32.075 62.825,32.332 62.342,32.844 C61.859,33.357 61.500,34.059 61.267,34.950 C62.067,34.825 62.717,34.692 63.217,34.550 C63.717,34.409 64.105,34.257 64.380,34.094 C64.655,33.932 64.840,33.759 64.936,33.575 C65.031,33.392 65.080,33.192 65.080,32.975 C65.080,32.759 64.996,32.555 64.830,32.363 ZM53.155,35.263 C53.330,35.405 53.480,35.571 53.605,35.763 C53.730,35.955 53.846,36.167 53.955,36.400 L56.555,42.600 L53.180,42.600 C52.905,42.600 52.677,42.553 52.498,42.457 C52.319,42.361 52.180,42.192 52.080,41.950 L50.280,37.363 C50.188,37.155 50.090,37.019 49.986,36.957 C49.882,36.894 49.713,36.863 49.480,36.863 L49.080,36.863 L48.380,42.600 L44.555,42.600 L46.855,23.888 L50.680,23.888 L49.392,34.375 L49.655,34.375 C49.871,34.375 50.044,34.340 50.173,34.269 C50.302,34.199 50.438,34.080 50.580,33.913 L53.255,30.263 C53.421,30.055 53.598,29.899 53.786,29.794 C53.973,29.690 54.205,29.638 54.480,29.638 L57.955,29.638 L54.330,34.250 C53.980,34.684 53.588,35.021 53.155,35.263 ZM42.786,33.113 C42.373,33.130 41.994,33.271 41.648,33.538 C41.303,33.805 40.990,34.205 40.711,34.738 C40.432,35.271 40.192,35.955 39.992,36.788 L39.292,42.600 L35.492,42.600 L37.067,29.638 L39.067,29.638 C39.467,29.638 39.780,29.732 40.005,29.919 C40.230,30.107 40.342,30.413 40.342,30.838 L40.342,32.313 C40.659,31.755 40.996,31.275 41.355,30.875 C41.713,30.475 42.082,30.165 42.461,29.944 C42.840,29.724 43.228,29.599 43.623,29.569 C44.019,29.540 44.417,29.617 44.817,29.800 L44.117,33.388 C43.642,33.188 43.198,33.096 42.786,33.113 ZM30.980,42.600 C30.738,42.600 30.536,42.569 30.374,42.507 C30.211,42.444 30.082,42.359 29.986,42.250 C29.890,42.142 29.824,42.013 29.786,41.863 C29.749,41.713 29.730,41.550 29.730,41.375 L29.730,40.438 C29.205,41.171 28.615,41.749 27.961,42.169 C27.307,42.590 26.588,42.800 25.805,42.800 C25.338,42.800 24.888,42.707 24.455,42.519 C24.022,42.332 23.638,42.049 23.305,41.669 C22.972,41.290 22.705,40.807 22.505,40.219 C22.305,39.632 22.205,38.938 22.205,38.138 C22.205,36.963 22.420,35.849 22.849,34.794 C23.278,33.740 23.878,32.817 24.649,32.025 C25.420,31.234 26.334,30.605 27.393,30.138 C28.451,29.671 29.613,29.438 30.880,29.438 C31.497,29.438 32.122,29.480 32.755,29.563 C33.388,29.646 34.013,29.796 34.630,30.013 L33.055,42.600 L30.980,42.600 ZM30.330,32.100 C29.697,32.100 29.120,32.242 28.599,32.525 C28.078,32.809 27.630,33.194 27.255,33.682 C26.880,34.169 26.590,34.736 26.386,35.382 C26.182,36.028 26.080,36.717 26.080,37.450 C26.080,37.867 26.113,38.221 26.180,38.513 C26.247,38.805 26.336,39.040 26.449,39.219 C26.561,39.399 26.695,39.530 26.849,39.613 C27.003,39.696 27.172,39.738 27.355,39.738 C27.638,39.738 27.913,39.632 28.180,39.419 C28.447,39.207 28.699,38.917 28.936,38.550 C29.174,38.184 29.393,37.755 29.593,37.263 C29.793,36.771 29.963,36.246 30.105,35.688 L30.568,32.100 L30.330,32.100 ZM16.105,42.600 L17.380,32.000 C17.413,31.775 17.455,31.528 17.505,31.257 C17.555,30.986 17.613,30.705 17.680,30.413 L12.205,39.813 C12.030,40.088 11.811,40.296 11.549,40.438 C11.286,40.580 10.997,40.650 10.680,40.650 L10.130,40.650 C9.813,40.650 9.538,40.580 9.305,40.438 C9.072,40.296 8.905,40.088 8.805,39.813 L5.605,30.375 C5.597,30.659 5.584,30.934 5.567,31.200 C5.551,31.467 5.530,31.713 5.505,31.938 L4.255,42.600 L0.655,42.600 L2.905,24.388 L6.005,24.388 C6.180,24.388 6.328,24.396 6.449,24.413 C6.569,24.430 6.676,24.459 6.767,24.500 C6.859,24.542 6.944,24.605 7.024,24.688 C7.103,24.771 7.188,24.880 7.280,25.013 L10.480,34.600 C10.572,34.859 10.655,35.124 10.730,35.394 C10.805,35.665 10.876,35.938 10.942,36.213 C11.067,35.938 11.201,35.665 11.342,35.394 C11.484,35.124 11.638,34.859 11.805,34.600 L17.380,25.013 C17.505,24.880 17.617,24.771 17.717,24.688 C17.817,24.605 17.917,24.542 18.017,24.500 C18.117,24.459 18.230,24.430 18.355,24.413 C18.480,24.396 18.630,24.388 18.805,24.388 L21.930,24.388 L19.680,42.600 L16.105,42.600 Z"/>
<path fill-rule="evenodd"  fill="rgb(255, 255, 255)"
 d="M144.242,45.975 C143.975,46.467 143.575,46.713 143.042,46.713 L140.142,46.713 L143.104,41.438 L139.892,29.638 L143.167,29.638 C143.442,29.638 143.648,29.705 143.785,29.838 C143.923,29.971 144.017,30.130 144.067,30.313 L145.192,35.900 C145.242,36.142 145.287,36.384 145.329,36.625 C145.371,36.867 145.404,37.109 145.429,37.350 C145.537,37.100 145.646,36.853 145.754,36.607 C145.862,36.361 145.975,36.117 146.092,35.875 L148.492,30.313 C148.592,30.121 148.737,29.961 148.929,29.832 C149.121,29.703 149.317,29.638 149.517,29.638 L152.642,29.638 L144.242,45.975 ZM133.304,42.600 L135.579,23.888 L139.404,23.888 L137.129,42.600 L133.304,42.600 ZM130.455,40.275 C129.871,41.050 129.198,41.665 128.436,42.119 C127.673,42.574 126.875,42.800 126.042,42.800 C125.509,42.800 125.027,42.713 124.598,42.538 C124.169,42.363 123.792,42.130 123.467,41.838 L122.867,46.713 L119.092,46.713 L121.167,29.638 L123.167,29.638 C123.567,29.638 123.880,29.732 124.105,29.919 C124.330,30.107 124.442,30.413 124.442,30.838 L124.442,32.013 C125.042,31.213 125.702,30.584 126.423,30.125 C127.144,29.667 127.917,29.438 128.742,29.438 C129.275,29.438 129.763,29.532 130.205,29.719 C130.646,29.907 131.027,30.200 131.348,30.600 C131.669,31.000 131.919,31.511 132.098,32.132 C132.277,32.753 132.367,33.492 132.367,34.350 C132.367,35.484 132.194,36.561 131.848,37.582 C131.502,38.603 131.038,39.500 130.455,40.275 ZM128.155,32.938 C127.913,32.563 127.592,32.375 127.192,32.375 C126.925,32.375 126.648,32.478 126.361,32.682 C126.073,32.886 125.794,33.163 125.523,33.513 C125.252,33.863 124.998,34.275 124.761,34.750 C124.523,35.225 124.321,35.734 124.155,36.275 L123.767,39.413 C124.009,39.605 124.277,39.742 124.573,39.825 C124.869,39.909 125.150,39.950 125.417,39.950 C125.867,39.950 126.282,39.800 126.661,39.500 C127.040,39.200 127.367,38.807 127.642,38.319 C127.917,37.832 128.132,37.275 128.286,36.650 C128.440,36.025 128.517,35.388 128.517,34.738 C128.517,33.913 128.396,33.313 128.155,32.938 ZM116.742,40.275 C116.159,41.050 115.486,41.665 114.724,42.119 C113.961,42.574 113.163,42.800 112.330,42.800 C111.796,42.800 111.315,42.713 110.886,42.538 C110.457,42.363 110.080,42.130 109.755,41.838 L109.155,46.713 L105.380,46.713 L107.455,29.638 L109.455,29.638 C109.855,29.638 110.167,29.732 110.392,29.919 C110.617,30.107 110.730,30.413 110.730,30.838 L110.730,32.013 C111.330,31.213 111.990,30.584 112.711,30.125 C113.432,29.667 114.205,29.438 115.030,29.438 C115.563,29.438 116.050,29.532 116.492,29.719 C116.934,29.907 117.315,30.200 117.636,30.600 C117.957,31.000 118.207,31.511 118.386,32.132 C118.565,32.753 118.655,33.492 118.655,34.350 C118.655,35.484 118.482,36.561 118.136,37.582 C117.790,38.603 117.325,39.500 116.742,40.275 ZM114.442,32.938 C114.200,32.563 113.880,32.375 113.480,32.375 C113.213,32.375 112.936,32.478 112.649,32.682 C112.361,32.886 112.082,33.163 111.811,33.513 C111.540,33.863 111.286,34.275 111.049,34.750 C110.811,35.225 110.609,35.734 110.442,36.275 L110.055,39.413 C110.296,39.605 110.565,39.742 110.861,39.825 C111.157,39.909 111.438,39.950 111.705,39.950 C112.155,39.950 112.569,39.800 112.949,39.500 C113.328,39.200 113.655,38.807 113.930,38.319 C114.205,37.832 114.419,37.275 114.574,36.650 C114.728,36.025 114.805,35.388 114.805,34.738 C114.805,33.913 114.684,33.313 114.442,32.938 ZM101.455,42.600 C100.538,42.600 100.080,42.175 100.080,41.325 L100.080,40.500 C99.455,41.284 98.784,41.863 98.067,42.238 C97.351,42.613 96.605,42.800 95.830,42.800 C95.288,42.800 94.797,42.692 94.355,42.475 C93.913,42.259 93.544,41.940 93.249,41.519 C92.953,41.099 92.742,40.582 92.617,39.969 C92.492,39.357 92.480,38.655 92.580,37.863 L93.555,29.638 L97.430,29.638 L96.455,37.863 C96.413,38.213 96.399,38.509 96.411,38.750 C96.424,38.992 96.467,39.186 96.542,39.332 C96.617,39.478 96.719,39.582 96.849,39.644 C96.978,39.707 97.138,39.738 97.330,39.738 C97.597,39.738 97.872,39.661 98.155,39.507 C98.438,39.353 98.713,39.136 98.980,38.857 C99.247,38.578 99.494,38.238 99.724,37.838 C99.953,37.438 100.142,36.992 100.292,36.500 L101.130,29.638 L105.005,29.638 L103.430,42.600 L101.455,42.600 ZM90.430,28.469 C90.288,28.565 90.117,28.613 89.917,28.613 C89.726,28.613 89.534,28.550 89.342,28.425 C89.151,28.300 88.936,28.163 88.699,28.013 C88.461,27.863 88.188,27.725 87.880,27.600 C87.572,27.475 87.209,27.413 86.792,27.413 C86.409,27.413 86.074,27.467 85.786,27.575 C85.499,27.684 85.259,27.834 85.067,28.025 C84.876,28.217 84.732,28.442 84.636,28.700 C84.540,28.959 84.492,29.242 84.492,29.550 C84.492,29.884 84.586,30.163 84.774,30.388 C84.961,30.613 85.211,30.811 85.524,30.982 C85.836,31.153 86.188,31.309 86.580,31.450 C86.972,31.592 87.374,31.746 87.786,31.913 C88.199,32.080 88.603,32.271 88.999,32.488 C89.394,32.705 89.749,32.975 90.061,33.300 C90.374,33.625 90.624,34.017 90.811,34.475 C90.999,34.934 91.092,35.484 91.092,36.125 C91.092,37.042 90.934,37.905 90.617,38.713 C90.301,39.521 89.847,40.228 89.255,40.832 C88.663,41.436 87.944,41.915 87.099,42.269 C86.253,42.623 85.301,42.800 84.242,42.800 C83.717,42.800 83.190,42.742 82.661,42.625 C82.132,42.509 81.624,42.344 81.136,42.132 C80.649,41.919 80.197,41.667 79.780,41.375 C79.363,41.084 79.009,40.759 78.717,40.400 L80.167,38.500 C80.284,38.359 80.428,38.242 80.599,38.150 C80.769,38.059 80.942,38.013 81.117,38.013 C81.351,38.013 81.578,38.094 81.799,38.257 C82.019,38.419 82.263,38.599 82.530,38.794 C82.797,38.990 83.107,39.169 83.461,39.332 C83.815,39.494 84.251,39.575 84.767,39.575 C85.526,39.575 86.111,39.369 86.524,38.957 C86.936,38.544 87.142,37.934 87.142,37.125 C87.142,36.750 87.049,36.442 86.861,36.200 C86.674,35.959 86.428,35.755 86.124,35.588 C85.819,35.421 85.472,35.274 85.080,35.144 C84.688,35.015 84.288,34.875 83.880,34.725 C83.472,34.575 83.072,34.399 82.680,34.194 C82.288,33.990 81.940,33.724 81.636,33.394 C81.332,33.065 81.086,32.661 80.899,32.182 C80.711,31.703 80.617,31.113 80.617,30.413 C80.617,29.605 80.769,28.828 81.074,28.082 C81.378,27.336 81.813,26.675 82.380,26.100 C82.947,25.525 83.634,25.067 84.442,24.725 C85.251,24.384 86.159,24.213 87.167,24.213 C87.684,24.213 88.186,24.267 88.674,24.375 C89.161,24.484 89.617,24.634 90.042,24.825 C90.467,25.017 90.855,25.244 91.205,25.507 C91.555,25.769 91.851,26.055 92.092,26.363 L90.867,28.038 C90.717,28.230 90.572,28.374 90.430,28.469 Z"/>
</svg>
