<svg
 xmlns="http://www.w3.org/2000/svg"
 xmlns:xlink="http://www.w3.org/1999/xlink"
 width="46px" height="31px">
<path fill-rule="evenodd"  fill="rgb(241, 14, 52)"
 d="M3.521,8.877 L4.400,10.987 L2.662,10.987 L3.521,8.877 ZM11.686,21.260 L11.686,20.205 L14.459,20.205 L14.459,19.131 L11.686,19.131 L11.686,18.174 L14.869,18.174 L16.236,19.717 L14.791,21.260 L11.686,21.260 ZM19.811,17.647 L19.811,21.885 L17.877,19.737 L19.811,17.647 ZM22.701,19.522 L21.080,19.522 L21.080,18.174 L22.721,18.174 C23.241,18.174 23.502,18.389 23.502,18.819 C23.502,19.287 23.235,19.522 22.701,19.522 L22.701,19.522 ZM28.307,19.365 L26.725,19.365 L26.725,18.174 L28.326,18.174 C28.873,18.174 29.146,18.363 29.146,18.740 C29.146,19.157 28.866,19.365 28.307,19.365 L28.307,19.365 ZM22.877,10.244 L21.295,10.244 L21.295,9.072 L22.896,9.072 C23.443,9.072 23.717,9.261 23.717,9.639 C23.717,10.043 23.437,10.244 22.877,10.244 L22.877,10.244 ZM33.561,8.877 L34.420,10.987 L32.682,10.987 L33.561,8.877 ZM11.881,7.959 L10.377,11.553 L8.717,7.959 L6.646,7.959 L6.646,12.979 L4.498,7.959 L2.623,7.959 L0.357,13.252 L1.725,13.252 L2.213,12.080 L4.850,12.080 L5.338,13.252 L7.916,13.252 L7.916,9.112 L9.752,13.252 L10.865,13.252 L12.701,9.112 L12.701,13.252 L13.990,13.252 L13.990,7.959 L11.881,7.959 ZM22.721,17.080 L18.678,17.080 L17.076,18.819 L15.514,17.080 L10.436,17.080 L10.436,22.373 L15.436,22.373 L17.057,20.615 L18.619,22.373 L21.080,22.373 L21.080,20.596 C21.197,20.596 21.389,20.599 21.656,20.606 C21.923,20.612 22.135,20.615 22.291,20.615 C22.447,20.615 22.652,20.609 22.906,20.596 C23.160,20.583 23.365,20.554 23.521,20.508 C23.678,20.463 23.847,20.398 24.029,20.313 C24.211,20.228 24.358,20.121 24.469,19.990 C24.579,19.860 24.670,19.697 24.742,19.502 C24.814,19.307 24.850,19.079 24.850,18.819 C24.850,17.660 24.140,17.080 22.721,17.080 L22.721,17.080 ZM16.197,12.158 L16.197,11.104 L19.088,11.104 L19.088,10.030 L16.197,10.030 L16.197,9.072 L19.166,9.072 L19.166,7.959 L14.928,7.959 L14.928,13.252 L19.166,13.252 L19.166,12.158 L16.197,12.158 ZM43.482,23.408 L40.201,23.408 L40.201,22.940 C39.797,23.252 39.225,23.408 38.482,23.408 L28.150,23.408 L28.150,21.709 C28.150,21.605 28.137,21.540 28.111,21.514 C28.085,21.488 28.020,21.475 27.916,21.475 L27.760,21.475 L27.760,23.408 L24.361,23.408 L24.361,21.416 C23.958,21.586 23.372,21.670 22.603,21.670 L22.193,21.670 L22.193,23.408 L18.072,23.408 L17.057,22.256 L15.982,23.408 L9.283,23.408 L9.283,16.026 L16.100,16.026 L17.076,17.158 L18.131,16.026 L22.701,16.026 C23.586,16.026 24.179,16.169 24.478,16.455 L24.478,16.026 L28.561,16.026 C29.290,16.026 29.856,16.169 30.260,16.455 L30.260,16.026 L36.432,16.026 L36.432,16.455 C36.731,16.169 37.239,16.026 37.955,16.026 L41.412,16.026 L41.412,16.455 C41.803,16.169 42.330,16.026 42.994,16.026 L45.338,16.026 L45.338,2.783 C45.338,2.067 45.087,1.452 44.586,0.938 C44.085,0.424 43.476,0.166 42.760,0.166 L2.916,0.166 C2.200,0.166 1.591,0.424 1.090,0.938 C0.588,1.452 0.338,2.067 0.338,2.783 L0.338,10.420 L1.861,6.924 L5.162,6.924 L5.592,7.783 L5.592,6.924 L9.459,6.924 L10.299,8.819 L11.139,6.924 L23.404,6.924 C24.042,6.924 24.518,7.067 24.830,7.354 L24.830,6.924 L28.189,6.924 L28.189,7.354 C28.710,7.067 29.420,6.924 30.318,6.924 L35.182,6.924 L35.631,7.783 L35.631,6.924 L39.244,6.924 L39.732,7.783 L39.732,6.924 L43.248,6.924 L43.248,14.307 L39.693,14.307 L39.029,13.174 L39.029,14.307 L34.596,14.307 L34.107,13.115 L33.014,13.115 L32.525,14.307 C32.408,14.307 32.073,14.314 31.520,14.326 C30.966,14.340 30.556,14.343 30.289,14.336 C30.022,14.330 29.680,14.287 29.264,14.209 C28.847,14.131 28.489,14.014 28.189,13.858 L28.189,14.307 L22.740,14.307 L22.740,12.627 C22.740,12.445 22.675,12.354 22.545,12.354 L22.350,12.373 L22.350,14.307 L11.783,14.307 L11.783,13.389 L11.393,14.307 L9.186,14.307 L8.814,13.408 L8.814,14.307 L4.557,14.307 L4.068,13.115 L2.994,13.115 L2.506,14.307 L0.338,14.307 L0.338,27.549 C0.338,28.265 0.588,28.880 1.090,29.395 C1.591,29.909 2.200,30.166 2.916,30.166 L42.760,30.166 C43.476,30.166 44.085,29.909 44.586,29.395 C45.087,28.880 45.338,28.265 45.338,27.549 L45.338,23.076 C44.882,23.298 44.264,23.408 43.482,23.408 L43.482,23.408 ZM29.967,17.373 C29.589,17.178 29.088,17.080 28.463,17.080 L25.455,17.080 L25.455,22.373 L26.725,22.373 L26.725,20.440 L28.072,20.440 C28.515,20.440 28.814,20.508 28.971,20.645 C29.127,20.781 29.205,21.065 29.205,21.494 L29.205,22.373 L30.475,22.373 L30.475,21.319 C30.475,20.941 30.416,20.642 30.299,20.420 C30.182,20.199 29.960,20.030 29.635,19.912 C29.921,19.795 30.143,19.607 30.299,19.346 C30.455,19.086 30.533,18.806 30.533,18.506 C30.533,17.946 30.344,17.569 29.967,17.373 ZM24.557,8.262 C24.179,8.073 23.671,7.979 23.033,7.979 L20.045,7.959 L20.045,13.252 L21.295,13.252 L21.295,11.338 L22.662,11.338 C22.896,11.338 23.088,11.361 23.238,11.406 C23.388,11.452 23.502,11.507 23.580,11.572 C23.658,11.638 23.713,11.742 23.746,11.885 C23.778,12.028 23.798,12.149 23.805,12.246 C23.811,12.344 23.811,12.507 23.805,12.735 C23.798,12.963 23.795,13.135 23.795,13.252 L25.064,13.252 L25.064,12.217 C25.064,11.826 25.009,11.524 24.898,11.309 C24.788,11.094 24.563,10.928 24.225,10.811 C24.498,10.694 24.716,10.505 24.879,10.244 C25.042,9.984 25.123,9.697 25.123,9.385 C25.123,8.825 24.934,8.451 24.557,8.262 ZM32.506,21.260 L32.506,20.205 L35.396,20.205 L35.396,19.131 L32.506,19.131 L32.506,18.174 L35.455,18.174 L35.455,17.080 L31.236,17.080 L31.236,22.373 L35.455,22.373 L35.455,21.280 L32.506,21.260 ZM25.846,7.959 L25.846,13.252 L27.135,13.252 L27.135,7.959 L25.846,7.959 ZM40.328,19.629 C40.100,19.388 39.827,19.248 39.508,19.209 C39.189,19.170 38.870,19.154 38.551,19.160 C38.232,19.167 37.958,19.141 37.730,19.082 C37.502,19.024 37.389,18.890 37.389,18.682 C37.389,18.357 37.623,18.194 38.092,18.194 L40.416,18.194 L40.416,17.080 L37.877,17.080 C37.356,17.080 36.926,17.217 36.588,17.490 C36.249,17.764 36.080,18.155 36.080,18.662 C36.080,19.131 36.191,19.489 36.412,19.737 C36.633,19.984 36.907,20.131 37.232,20.176 C37.558,20.222 37.880,20.244 38.199,20.244 C38.518,20.244 38.788,20.277 39.010,20.342 C39.231,20.407 39.342,20.544 39.342,20.752 C39.342,21.078 39.120,21.240 38.678,21.240 L36.217,21.240 L36.217,22.373 L38.678,22.373 C40.006,22.373 40.670,21.814 40.670,20.694 C40.670,20.225 40.556,19.870 40.328,19.629 ZM44.234,19.209 C43.720,19.170 43.274,19.138 42.896,19.112 C42.519,19.086 42.330,18.942 42.330,18.682 C42.330,18.357 42.564,18.194 43.033,18.194 L45.338,18.194 L45.338,17.080 L42.818,17.080 C42.297,17.080 41.864,17.217 41.520,17.490 C41.174,17.764 41.002,18.155 41.002,18.662 C41.002,19.053 41.083,19.369 41.246,19.610 C41.409,19.851 41.610,20.007 41.852,20.078 C42.092,20.150 42.353,20.202 42.633,20.235 C42.913,20.267 43.173,20.280 43.414,20.274 C43.655,20.267 43.857,20.303 44.020,20.381 C44.182,20.459 44.264,20.583 44.264,20.752 C44.264,21.078 44.049,21.240 43.619,21.240 L41.178,21.240 L41.178,22.373 L43.619,22.373 C44.452,22.373 45.025,22.146 45.338,21.690 L45.338,19.717 C45.116,19.418 44.749,19.248 44.234,19.209 ZM40.826,7.979 L40.826,11.651 L38.600,7.979 L36.666,7.979 L36.666,12.979 L34.537,7.979 L32.643,7.979 L30.846,12.139 L30.279,12.139 C29.811,12.139 29.488,12.009 29.312,11.748 C29.137,11.488 29.049,11.110 29.049,10.615 C29.049,10.368 29.068,10.150 29.107,9.961 C29.146,9.773 29.221,9.623 29.332,9.512 C29.442,9.401 29.537,9.314 29.615,9.248 C29.693,9.183 29.833,9.141 30.035,9.121 C30.237,9.102 30.387,9.089 30.484,9.082 C30.582,9.076 30.768,9.079 31.041,9.092 C31.314,9.105 31.497,9.112 31.588,9.112 L31.588,7.959 L30.357,7.959 C28.626,7.959 27.760,8.858 27.760,10.655 C27.760,12.386 28.600,13.252 30.279,13.252 L31.744,13.252 L32.232,12.080 L34.850,12.080 L35.357,13.252 L37.936,13.252 L37.936,9.287 L40.318,13.252 L42.115,13.252 L42.115,7.979 L40.826,7.979 Z"/>
</svg>
