<svg
 xmlns="http://www.w3.org/2000/svg"
 xmlns:xlink="http://www.w3.org/1999/xlink"
 width="46px" height="31px">
<path fill-rule="evenodd"  fill="rgb(241, 14, 52)"
 d="M30.416,12.920 C30.051,12.920 29.680,13.115 29.303,13.506 L29.303,17.881 C29.537,17.998 29.804,18.057 30.103,18.057 C30.533,18.057 30.872,17.829 31.119,17.373 C31.393,16.892 31.529,16.201 31.529,15.303 C31.529,13.715 31.158,12.920 30.416,12.920 L30.416,12.920 ZM39.029,12.686 C38.378,12.686 38.014,13.324 37.936,14.600 L40.084,14.600 C40.045,13.324 39.693,12.686 39.029,12.686 L39.029,12.686 ZM8.639,19.522 C8.014,20.004 7.174,20.244 6.119,20.244 C4.869,20.244 3.775,19.978 2.838,19.444 L3.189,17.237 C3.593,17.471 4.062,17.670 4.596,17.832 C5.129,17.995 5.585,18.076 5.963,18.076 C6.588,18.076 6.900,17.875 6.900,17.471 C6.900,17.263 6.799,17.084 6.598,16.934 C6.396,16.784 6.041,16.618 5.533,16.436 C4.661,16.123 4.013,15.756 3.590,15.332 C3.167,14.909 2.955,14.320 2.955,13.565 C2.955,12.653 3.268,11.944 3.893,11.436 C4.491,10.941 5.292,10.694 6.295,10.694 C7.362,10.694 8.333,10.902 9.205,11.319 L8.853,13.506 C7.994,13.076 7.187,12.862 6.432,12.862 C5.937,12.862 5.689,13.031 5.689,13.369 C5.689,13.552 5.793,13.715 6.002,13.858 C6.210,14.001 6.549,14.157 7.018,14.326 C7.903,14.652 8.561,15.026 8.990,15.449 C9.420,15.873 9.635,16.468 9.635,17.237 C9.635,18.226 9.303,18.988 8.639,19.522 L8.639,19.522 ZM13.893,13.037 L13.893,16.885 C13.893,17.536 14.166,17.862 14.713,17.862 C14.869,17.862 15.155,17.816 15.572,17.725 L15.572,20.030 C14.960,20.173 14.446,20.244 14.029,20.244 C13.079,20.244 12.356,20.049 11.861,19.658 C11.288,19.190 11.002,18.408 11.002,17.315 L11.002,13.037 L9.791,13.037 L10.123,11.026 L11.021,10.869 L11.373,8.643 L13.893,8.233 L13.893,10.869 L15.768,10.869 L15.396,13.037 L13.893,13.037 ZM21.061,13.487 C20.331,13.487 19.797,13.689 19.459,14.092 L19.459,20.069 L16.529,20.069 L16.529,10.869 L19.088,10.869 L19.283,11.963 C19.413,11.572 19.631,11.273 19.937,11.065 C20.243,10.857 20.605,10.752 21.021,10.752 C21.191,10.752 21.373,10.772 21.568,10.811 L21.568,13.526 C21.438,13.500 21.269,13.487 21.061,13.487 L21.061,13.487 ZM22.291,10.869 L25.221,10.869 L25.221,20.069 L22.291,20.069 L22.291,10.869 ZM33.248,19.151 C32.584,19.880 31.711,20.244 30.631,20.244 C30.214,20.244 29.771,20.173 29.303,20.030 L29.303,22.979 L26.373,23.467 L26.373,10.869 L28.951,10.869 L29.107,11.787 C29.797,11.058 30.559,10.694 31.393,10.694 C32.317,10.694 33.040,11.032 33.561,11.709 C34.146,12.451 34.439,13.617 34.439,15.205 C34.439,16.989 34.042,18.304 33.248,19.151 L33.248,19.151 ZM23.756,9.971 C23.326,9.971 22.961,9.818 22.662,9.512 C22.362,9.206 22.213,8.838 22.213,8.408 C22.213,7.979 22.362,7.614 22.662,7.315 C22.961,7.015 23.326,6.865 23.756,6.865 C24.186,6.865 24.550,7.015 24.850,7.315 C25.149,7.614 25.299,7.979 25.299,8.408 C25.299,8.838 25.149,9.206 24.850,9.512 C24.550,9.818 24.186,9.971 23.756,9.971 ZM42.799,16.397 L37.955,16.397 C38.020,17.009 38.202,17.439 38.502,17.686 C38.762,17.933 39.172,18.057 39.732,18.057 C40.657,18.057 41.490,17.855 42.232,17.451 L42.545,19.463 C41.776,19.984 40.735,20.244 39.420,20.244 C38.040,20.244 36.991,19.886 36.275,19.170 C35.455,18.389 35.045,17.165 35.045,15.498 C35.045,14.014 35.406,12.842 36.129,11.983 C36.852,11.123 37.838,10.694 39.088,10.694 C40.312,10.694 41.249,11.110 41.900,11.944 C42.525,12.764 42.838,13.910 42.838,15.381 C42.838,15.876 42.825,16.215 42.799,16.397 L42.799,16.397 ZM44.596,0.908 C44.101,0.414 43.515,0.166 42.838,0.166 L2.838,0.166 C2.161,0.166 1.575,0.414 1.080,0.908 C0.585,1.403 0.338,1.989 0.338,2.666 L0.338,27.666 C0.338,28.343 0.585,28.929 1.080,29.424 C1.575,29.919 2.161,30.166 2.838,30.166 L42.838,30.166 C43.515,30.166 44.101,29.919 44.596,29.424 C45.090,28.929 45.338,28.343 45.338,27.666 L45.338,2.666 C45.338,1.989 45.090,1.403 44.596,0.908 Z"/>
</svg>
