<svg
 xmlns="http://www.w3.org/2000/svg"
 xmlns:xlink="http://www.w3.org/1999/xlink"
 width="46px" height="31px">
<path fill-rule="evenodd"  fill="rgb(241, 14, 52)"
 d="M37.389,15.830 C37.284,15.804 37.167,15.791 37.037,15.791 L34.049,15.791 L34.049,18.526 L37.037,18.526 C37.167,18.526 37.284,18.513 37.389,18.487 C37.688,18.422 37.939,18.269 38.141,18.028 C38.342,17.787 38.443,17.497 38.443,17.158 C38.443,16.820 38.342,16.530 38.141,16.289 C37.939,16.049 37.688,15.896 37.389,15.830 L37.389,15.830 ZM37.057,11.748 C37.043,11.748 37.001,11.745 36.930,11.739 C36.858,11.732 36.803,11.729 36.764,11.729 L34.049,11.729 L34.049,14.248 L36.764,14.248 C36.920,14.248 37.018,14.242 37.057,14.229 C37.356,14.177 37.603,14.040 37.799,13.819 C37.994,13.597 38.092,13.324 38.092,12.998 C38.092,12.673 37.994,12.396 37.799,12.168 C37.603,11.941 37.356,11.800 37.057,11.748 L37.057,11.748 ZM8.150,20.440 L7.330,20.420 C6.796,20.407 6.086,20.349 5.201,20.244 C4.316,20.140 3.528,19.990 2.838,19.795 L2.838,17.608 C4.413,18.376 5.904,18.760 7.311,18.760 C8.183,18.760 8.866,18.523 9.361,18.047 C9.856,17.572 10.103,16.957 10.103,16.201 L10.103,10.186 L14.557,10.186 L14.557,16.201 C14.557,19.027 12.421,20.440 8.150,20.440 L8.150,20.440 ZM24.439,20.401 C22.786,20.479 21.363,20.388 20.172,20.127 C18.980,19.867 18.066,19.476 17.428,18.955 C16.790,18.435 16.327,17.862 16.041,17.237 C15.754,16.612 15.611,15.922 15.611,15.166 C15.611,14.411 15.754,13.721 16.041,13.096 C16.327,12.471 16.790,11.898 17.428,11.377 C18.066,10.857 18.980,10.466 20.172,10.205 C21.363,9.945 22.786,9.854 24.439,9.932 L24.986,9.971 C25.351,9.997 25.872,10.059 26.549,10.156 C27.226,10.254 27.877,10.381 28.502,10.537 L28.502,12.725 C27.213,12.061 25.911,11.683 24.596,11.592 C23.189,11.488 22.089,11.755 21.295,12.393 C20.501,13.031 20.103,13.955 20.103,15.166 C20.103,16.377 20.501,17.302 21.295,17.940 C22.089,18.578 23.189,18.845 24.596,18.740 C25.911,18.650 27.213,18.265 28.502,17.588 L28.502,19.795 C27.108,20.147 25.754,20.349 24.439,20.401 L24.439,20.401 ZM41.910,19.434 C41.292,19.909 40.501,20.147 39.537,20.147 L29.947,20.147 L29.947,10.186 L38.834,10.186 C38.899,10.186 38.990,10.189 39.107,10.196 C39.225,10.202 39.303,10.205 39.342,10.205 C40.201,10.244 40.898,10.479 41.432,10.908 C41.965,11.338 42.232,11.911 42.232,12.627 C42.232,13.226 42.024,13.744 41.607,14.180 C41.191,14.616 40.611,14.886 39.869,14.990 L39.869,15.049 C40.728,15.114 41.438,15.371 41.998,15.821 C42.558,16.270 42.838,16.846 42.838,17.549 C42.838,18.330 42.528,18.959 41.910,19.434 ZM44.596,0.908 C44.101,0.414 43.515,0.166 42.838,0.166 L2.838,0.166 C2.161,0.166 1.575,0.414 1.080,0.908 C0.585,1.403 0.338,1.989 0.338,2.666 L0.338,27.666 C0.338,28.343 0.585,28.929 1.080,29.424 C1.575,29.919 2.161,30.166 2.838,30.166 L42.838,30.166 C43.515,30.166 44.101,29.919 44.596,29.424 C45.090,28.929 45.338,28.343 45.338,27.666 L45.338,2.666 C45.338,1.989 45.090,1.403 44.596,0.908 Z"/>
</svg>
