<svg
 xmlns="http://www.w3.org/2000/svg"
 xmlns:xlink="http://www.w3.org/1999/xlink"
 width="15px" height="13px">
<path fill-rule="evenodd"  fill="rgb(255, 255, 255)"
 d="M4.624,10.595 C4.333,10.595 4.082,10.701 3.870,10.913 C3.658,11.125 3.552,11.376 3.552,11.666 C3.552,11.956 3.658,12.207 3.870,12.420 C4.082,12.632 4.333,12.738 4.624,12.738 C4.914,12.738 5.165,12.632 5.377,12.420 C5.589,12.207 5.695,11.956 5.695,11.666 C5.695,11.376 5.589,11.125 5.377,10.913 C5.165,10.701 4.914,10.595 4.624,10.595 ZM12.124,10.595 C11.833,10.595 11.582,10.701 11.370,10.913 C11.158,11.125 11.052,11.376 11.052,11.666 C11.052,11.956 11.158,12.207 11.370,12.420 C11.582,12.632 11.833,12.738 12.124,12.738 C12.414,12.738 12.665,12.632 12.877,12.420 C13.089,12.207 13.195,11.956 13.195,11.666 C13.195,11.376 13.089,11.125 12.877,10.913 C12.665,10.701 12.414,10.595 12.124,10.595 ZM14.107,2.182 C14.001,2.076 13.876,2.023 13.731,2.023 L3.678,2.023 C3.672,1.984 3.660,1.912 3.640,1.806 C3.620,1.700 3.605,1.617 3.594,1.559 C3.583,1.500 3.561,1.428 3.527,1.341 C3.494,1.255 3.457,1.186 3.418,1.136 C3.379,1.086 3.325,1.043 3.255,1.006 C3.185,0.970 3.106,0.952 3.016,0.952 L0.874,0.952 C0.728,0.952 0.603,1.005 0.497,1.111 C0.391,1.217 0.338,1.343 0.338,1.488 C0.338,1.633 0.391,1.758 0.497,1.864 C0.603,1.970 0.728,2.023 0.874,2.023 L2.581,2.023 L4.063,8.912 C4.051,8.940 4.008,9.023 3.933,9.159 C3.858,9.296 3.798,9.408 3.753,9.494 C3.708,9.581 3.664,9.681 3.619,9.795 C3.574,9.910 3.552,9.998 3.552,10.059 C3.552,10.204 3.605,10.330 3.711,10.436 C3.817,10.542 3.943,10.595 4.088,10.595 L12.659,10.595 C12.804,10.595 12.930,10.542 13.036,10.436 C13.142,10.330 13.195,10.204 13.195,10.059 C13.195,9.914 13.142,9.788 13.036,9.682 C12.930,9.576 12.804,9.523 12.659,9.523 L4.958,9.523 C5.092,9.256 5.159,9.077 5.159,8.988 C5.159,8.932 5.123,8.737 5.050,8.402 L13.789,7.381 C13.923,7.364 14.036,7.304 14.128,7.201 C14.220,7.097 14.266,6.979 14.266,6.845 L14.266,2.559 C14.266,2.414 14.213,2.289 14.107,2.182 Z"/>
</svg>
