<svg
 xmlns="http://www.w3.org/2000/svg"
 xmlns:xlink="http://www.w3.org/1999/xlink"
 width="7px" height="13px">
<path fill-rule="evenodd"
 d="M4.641,0.523 C3.804,0.523 3.134,0.771 2.631,1.267 C2.128,1.763 1.877,2.460 1.877,3.360 L1.877,4.941 L0.027,4.941 L0.027,7.089 L1.877,7.089 L1.877,12.595 L4.097,12.595 L4.097,7.089 L5.939,7.089 L6.222,4.941 L4.097,4.941 L4.097,3.570 C4.097,3.222 4.169,2.961 4.314,2.787 C4.460,2.613 4.740,2.526 5.156,2.526 L6.295,2.526 L6.295,0.610 C5.903,0.552 5.352,0.523 4.641,0.523 L4.641,0.523 Z"/>
</svg>
