<svg
 xmlns="http://www.w3.org/2000/svg"
 xmlns:xlink="http://www.w3.org/1999/xlink"
 width="18px" height="12px">
<path fill-rule="evenodd"  fill="rgb(241, 14, 52)"
 d="M10.675,5.262 L5.655,5.262 L5.655,7.090 L8.673,7.090 C8.644,7.259 8.592,7.438 8.517,7.627 C8.442,7.815 8.324,8.016 8.162,8.229 C8.000,8.442 7.810,8.631 7.592,8.798 C7.375,8.965 7.098,9.104 6.762,9.215 C6.425,9.327 6.057,9.382 5.655,9.382 C5.061,9.382 4.510,9.232 4.005,8.932 C3.500,8.633 3.099,8.225 2.804,7.710 C2.509,7.195 2.362,6.633 2.362,6.023 C2.362,5.414 2.509,4.852 2.804,4.337 C3.099,3.822 3.500,3.414 4.005,3.114 C4.510,2.815 5.061,2.665 5.655,2.665 C6.502,2.665 7.208,2.938 7.774,3.484 L9.217,2.099 C8.226,1.170 7.038,0.706 5.655,0.706 C4.935,0.706 4.246,0.846 3.588,1.127 C2.930,1.407 2.364,1.784 1.890,2.258 C1.416,2.732 1.039,3.298 0.759,3.956 C0.478,4.614 0.338,5.303 0.338,6.023 C0.338,6.744 0.478,7.433 0.759,8.091 C1.039,8.749 1.416,9.315 1.890,9.788 C2.364,10.262 2.930,10.640 3.588,10.920 C4.246,11.201 4.935,11.341 5.655,11.341 C6.661,11.341 7.554,11.120 8.332,10.677 C9.111,10.235 9.711,9.620 10.131,8.834 C10.552,8.049 10.763,7.153 10.763,6.147 C10.763,5.861 10.734,5.566 10.675,5.262 L10.675,5.262 ZM15.536,5.262 L15.536,3.745 L14.013,3.745 L14.013,5.262 L12.496,5.262 L12.496,6.785 L14.013,6.785 L14.013,8.301 L15.536,8.301 L15.536,6.785 L17.052,6.785 L17.052,5.262 L15.536,5.262 Z"/>
</svg>
