<svg
 xmlns="http://www.w3.org/2000/svg"
 xmlns:xlink="http://www.w3.org/1999/xlink"
 width="12px" height="12px">
<path fill-rule="evenodd"  fill="rgb(241, 14, 52)"
 d="M5.909,7.881 C5.397,7.881 4.959,7.699 4.596,7.336 C4.234,6.974 4.052,6.536 4.052,6.023 C4.052,5.511 4.234,5.073 4.596,4.710 C4.959,4.348 5.397,4.166 5.909,4.166 C6.422,4.166 6.860,4.348 7.222,4.710 C7.585,5.073 7.766,5.511 7.766,6.023 C7.766,6.536 7.585,6.974 7.222,7.336 C6.860,7.699 6.422,7.881 5.909,7.881 ZM5.909,3.165 C5.116,3.165 4.441,3.443 3.885,3.999 C3.329,4.556 3.051,5.230 3.051,6.023 C3.051,6.817 3.329,7.491 3.885,8.047 C4.441,8.604 5.116,8.882 5.909,8.882 C6.702,8.882 7.377,8.604 7.933,8.047 C8.489,7.491 8.768,6.817 8.768,6.023 C8.768,5.230 8.489,4.556 7.933,3.999 C7.377,3.443 6.702,3.165 5.909,3.165 ZM8.884,2.382 C8.700,2.382 8.543,2.447 8.412,2.578 C8.281,2.708 8.216,2.865 8.216,3.049 C8.216,3.233 8.281,3.390 8.412,3.521 C8.543,3.651 8.700,3.716 8.884,3.716 C9.067,3.716 9.225,3.651 9.355,3.521 C9.486,3.390 9.551,3.233 9.551,3.049 C9.551,2.865 9.486,2.708 9.355,2.578 C9.225,2.447 9.067,2.382 8.884,2.382 ZM7.230,1.449 C7.404,1.452 7.637,1.459 7.930,1.471 C8.222,1.483 8.471,1.507 8.677,1.544 C8.882,1.580 9.055,1.625 9.196,1.678 C9.437,1.775 9.650,1.915 9.834,2.099 C10.018,2.283 10.158,2.495 10.255,2.737 C10.308,2.877 10.353,3.050 10.389,3.256 C10.425,3.461 10.449,3.710 10.461,4.003 C10.473,4.296 10.481,4.529 10.483,4.703 C10.486,4.877 10.486,5.132 10.483,5.468 C10.481,5.805 10.480,5.990 10.480,6.023 C10.480,6.057 10.481,6.242 10.483,6.578 C10.486,6.915 10.486,7.170 10.483,7.344 C10.481,7.518 10.473,7.751 10.461,8.044 C10.449,8.336 10.425,8.585 10.389,8.791 C10.353,8.997 10.308,9.169 10.255,9.310 C10.158,9.552 10.018,9.764 9.834,9.948 C9.650,10.132 9.437,10.272 9.196,10.369 C9.055,10.422 8.882,10.467 8.677,10.503 C8.471,10.539 8.222,10.564 7.930,10.576 C7.637,10.588 7.404,10.595 7.230,10.597 C7.055,10.600 6.800,10.600 6.464,10.597 C6.128,10.595 5.943,10.594 5.909,10.594 C5.875,10.594 5.690,10.595 5.354,10.597 C5.018,10.600 4.763,10.600 4.589,10.597 C4.415,10.595 4.181,10.588 3.889,10.576 C3.596,10.564 3.347,10.539 3.142,10.503 C2.936,10.467 2.763,10.422 2.623,10.369 C2.381,10.272 2.168,10.132 1.985,9.948 C1.801,9.764 1.661,9.552 1.564,9.310 C1.511,9.169 1.466,8.997 1.430,8.791 C1.393,8.585 1.369,8.336 1.357,8.044 C1.345,7.751 1.338,7.518 1.335,7.344 C1.333,7.170 1.333,6.915 1.335,6.578 C1.338,6.242 1.339,6.057 1.339,6.023 C1.339,5.990 1.338,5.805 1.335,5.468 C1.333,5.132 1.333,4.877 1.335,4.703 C1.338,4.529 1.345,4.296 1.357,4.003 C1.369,3.710 1.393,3.461 1.430,3.256 C1.466,3.050 1.511,2.877 1.564,2.737 C1.661,2.495 1.801,2.283 1.985,2.099 C2.168,1.915 2.381,1.775 2.623,1.678 C2.763,1.625 2.936,1.580 3.142,1.544 C3.347,1.507 3.596,1.483 3.889,1.471 C4.181,1.459 4.415,1.452 4.589,1.449 C4.763,1.447 5.018,1.447 5.354,1.449 C5.690,1.452 5.875,1.453 5.909,1.453 C5.943,1.453 6.128,1.452 6.464,1.449 C6.800,1.447 7.055,1.447 7.230,1.449 ZM11.444,3.724 C11.396,2.718 11.096,1.939 10.545,1.388 C9.994,0.836 9.215,0.537 8.209,0.488 C7.783,0.464 7.017,0.452 5.909,0.452 C4.802,0.452 4.035,0.464 3.610,0.488 C2.604,0.537 1.825,0.836 1.274,1.388 C0.722,1.939 0.422,2.718 0.374,3.724 C0.350,4.149 0.338,4.916 0.338,6.023 C0.338,7.131 0.350,7.898 0.374,8.323 C0.422,9.329 0.722,10.108 1.274,10.659 C1.825,11.210 2.604,11.510 3.610,11.559 C4.035,11.583 4.802,11.595 5.909,11.595 C7.017,11.595 7.783,11.583 8.209,11.559 C9.215,11.510 9.994,11.210 10.545,10.659 C11.096,10.108 11.396,9.329 11.444,8.323 C11.469,7.898 11.481,7.131 11.481,6.023 C11.481,4.916 11.469,4.149 11.444,3.724 L11.444,3.724 Z"/>
</svg>
