<svg
 xmlns="http://www.w3.org/2000/svg"
 xmlns:xlink="http://www.w3.org/1999/xlink"
 width="16px" height="13px">
<path fill-rule="evenodd"
 d="M1.945,8.988 C1.498,8.988 1.119,9.144 0.807,9.456 C0.494,9.769 0.338,10.148 0.338,10.595 C0.338,11.041 0.494,11.421 0.807,11.733 C1.119,12.046 1.498,12.202 1.945,12.202 C2.391,12.202 2.771,12.046 3.083,11.733 C3.396,11.421 3.552,11.041 3.552,10.595 C3.552,10.148 3.396,9.769 3.083,9.456 C2.771,9.144 2.391,8.988 1.945,8.988 ZM1.945,4.702 C1.498,4.702 1.119,4.858 0.807,5.171 C0.494,5.483 0.338,5.863 0.338,6.309 C0.338,6.756 0.494,7.135 0.807,7.447 C1.119,7.760 1.498,7.916 1.945,7.916 C2.391,7.916 2.771,7.760 3.083,7.447 C3.396,7.135 3.552,6.756 3.552,6.309 C3.552,5.863 3.396,5.483 3.083,5.171 C2.771,4.858 2.391,4.702 1.945,4.702 ZM15.258,9.603 C15.205,9.550 15.142,9.523 15.070,9.523 L4.891,9.523 C4.819,9.523 4.756,9.550 4.703,9.603 C4.650,9.656 4.624,9.719 4.624,9.791 L4.624,11.398 C4.624,11.471 4.650,11.534 4.703,11.587 C4.756,11.640 4.819,11.666 4.891,11.666 L15.070,11.666 C15.142,11.666 15.205,11.640 15.258,11.587 C15.311,11.534 15.338,11.471 15.338,11.398 L15.338,9.791 C15.338,9.719 15.311,9.656 15.258,9.603 ZM1.945,0.416 C1.498,0.416 1.119,0.573 0.807,0.885 C0.494,1.198 0.338,1.577 0.338,2.023 C0.338,2.470 0.494,2.849 0.807,3.162 C1.119,3.474 1.498,3.631 1.945,3.631 C2.391,3.631 2.771,3.474 3.083,3.162 C3.396,2.849 3.552,2.470 3.552,2.023 C3.552,1.577 3.396,1.198 3.083,0.885 C2.771,0.573 2.391,0.416 1.945,0.416 ZM15.258,5.317 C15.205,5.264 15.142,5.238 15.070,5.238 L4.891,5.238 C4.819,5.238 4.756,5.264 4.703,5.317 C4.650,5.370 4.624,5.433 4.624,5.506 L4.624,7.113 C4.624,7.185 4.650,7.248 4.703,7.301 C4.756,7.354 4.819,7.381 4.891,7.381 L15.070,7.381 C15.142,7.381 15.205,7.354 15.258,7.301 C15.311,7.248 15.338,7.185 15.338,7.113 L15.338,5.506 C15.338,5.433 15.311,5.370 15.258,5.317 ZM15.258,1.031 C15.205,0.979 15.142,0.952 15.070,0.952 L4.891,0.952 C4.819,0.952 4.756,0.979 4.703,1.031 C4.650,1.085 4.624,1.147 4.624,1.220 L4.624,2.827 C4.624,2.900 4.650,2.962 4.703,3.015 C4.756,3.068 4.819,3.095 4.891,3.095 L15.070,3.095 C15.142,3.095 15.205,3.068 15.258,3.015 C15.311,2.962 15.338,2.900 15.338,2.827 L15.338,1.220 C15.338,1.147 15.311,1.085 15.258,1.031 Z"/>
</svg>
