<svg
 xmlns="http://www.w3.org/2000/svg"
 xmlns:xlink="http://www.w3.org/1999/xlink"
 width="9px" height="14px">
<path fill-rule="evenodd"  fill="rgb(241, 14, 52)"
 d="M4.624,7.309 C4.032,7.309 3.527,7.100 3.109,6.681 C2.690,6.263 2.481,5.758 2.481,5.166 C2.481,4.575 2.690,4.070 3.109,3.651 C3.527,3.233 4.032,3.023 4.624,3.023 C5.215,3.023 5.720,3.233 6.139,3.651 C6.557,4.070 6.766,4.575 6.766,5.166 C6.766,5.758 6.557,6.263 6.139,6.681 C5.720,7.100 5.215,7.309 4.624,7.309 ZM7.654,2.136 C6.817,1.299 5.807,0.881 4.624,0.881 C3.440,0.881 2.430,1.299 1.593,2.136 C0.756,2.973 0.338,3.983 0.338,5.166 C0.338,5.775 0.430,6.274 0.614,6.665 L3.669,13.143 C3.753,13.328 3.883,13.473 4.059,13.579 C4.234,13.685 4.423,13.738 4.624,13.738 C4.824,13.738 5.013,13.685 5.189,13.579 C5.364,13.473 5.497,13.328 5.586,13.143 L8.633,6.665 C8.817,6.274 8.909,5.775 8.909,5.166 C8.909,3.983 8.491,2.973 7.654,2.136 Z"/>
</svg>
