<svg
 xmlns="http://www.w3.org/2000/svg"
 xmlns:xlink="http://www.w3.org/1999/xlink"
 width="14px" height="11px">
<path fill-rule="evenodd"  fill="rgb(241, 14, 52)"
 d="M12.612,4.305 C11.026,5.379 9.822,6.213 9.000,6.808 C8.724,7.011 8.500,7.170 8.329,7.283 C8.157,7.397 7.928,7.513 7.643,7.631 C7.358,7.750 7.092,7.809 6.845,7.809 L6.838,7.809 L6.831,7.809 C6.584,7.809 6.318,7.750 6.033,7.631 C5.747,7.513 5.519,7.397 5.347,7.283 C5.175,7.170 4.952,7.011 4.676,6.808 C4.023,6.329 2.821,5.495 1.071,4.305 C0.795,4.121 0.551,3.911 0.338,3.674 L0.338,9.434 C0.338,9.753 0.451,10.026 0.679,10.254 C0.906,10.481 1.179,10.595 1.499,10.595 L12.177,10.595 C12.496,10.595 12.770,10.481 12.997,10.254 C13.224,10.026 13.338,9.753 13.338,9.434 L13.338,3.674 C13.130,3.906 12.888,4.117 12.612,4.305 L12.612,4.305 ZM12.993,0.721 C12.764,0.494 12.491,0.381 12.177,0.381 L1.499,0.381 C1.126,0.381 0.840,0.506 0.639,0.758 C0.438,1.009 0.338,1.324 0.338,1.701 C0.338,2.006 0.471,2.336 0.737,2.691 C1.003,3.047 1.286,3.326 1.586,3.529 C1.750,3.645 2.246,3.990 3.073,4.563 C3.900,5.136 4.533,5.577 4.973,5.887 C5.022,5.921 5.125,5.994 5.282,6.108 C5.439,6.222 5.569,6.314 5.674,6.384 C5.777,6.454 5.903,6.532 6.051,6.619 C6.198,6.706 6.337,6.772 6.468,6.815 C6.598,6.859 6.719,6.881 6.831,6.881 L6.838,6.881 L6.845,6.881 C6.956,6.881 7.077,6.859 7.208,6.815 C7.338,6.772 7.477,6.706 7.625,6.619 C7.772,6.532 7.898,6.454 8.002,6.384 C8.106,6.314 8.237,6.222 8.394,6.108 C8.551,5.994 8.654,5.921 8.702,5.887 C9.147,5.577 10.279,4.791 12.097,3.529 C12.450,3.282 12.745,2.985 12.982,2.637 C13.219,2.288 13.338,1.923 13.338,1.541 C13.338,1.222 13.223,0.949 12.993,0.721 Z"/>
</svg>
