<svg
 xmlns="http://www.w3.org/2000/svg"
 xmlns:xlink="http://www.w3.org/1999/xlink"
 width="15px" height="15px">
<path fill-rule="evenodd"
 d="M6.231,10.523 C5.198,10.523 4.315,10.157 3.581,9.423 C2.848,8.689 2.481,7.806 2.481,6.773 C2.481,5.741 2.848,4.858 3.581,4.124 C4.315,3.390 5.198,3.023 6.231,3.023 C7.263,3.023 8.146,3.390 8.880,4.124 C9.614,4.858 9.981,5.741 9.981,6.773 C9.981,7.806 9.614,8.689 8.880,9.423 C8.146,10.157 7.263,10.523 6.231,10.523 ZM13.957,12.984 L11.086,10.113 C11.777,9.114 12.124,8.001 12.124,6.773 C12.124,5.975 11.969,5.212 11.659,4.484 C11.349,3.756 10.931,3.128 10.403,2.601 C9.876,2.073 9.248,1.655 8.520,1.345 C7.792,1.035 7.029,0.881 6.231,0.881 C5.433,0.881 4.670,1.035 3.941,1.345 C3.213,1.655 2.585,2.073 2.058,2.601 C1.531,3.128 1.112,3.756 0.802,4.484 C0.493,5.212 0.338,5.975 0.338,6.773 C0.338,7.571 0.493,8.334 0.802,9.063 C1.112,9.791 1.531,10.419 2.058,10.946 C2.585,11.473 3.213,11.892 3.941,12.202 C4.670,12.511 5.433,12.666 6.231,12.666 C7.458,12.666 8.572,12.320 9.571,11.628 L12.442,14.491 C12.643,14.703 12.894,14.809 13.195,14.809 C13.485,14.809 13.736,14.703 13.948,14.491 C14.160,14.279 14.266,14.028 14.266,13.738 C14.266,13.442 14.163,13.191 13.957,12.984 L13.957,12.984 Z"/>
</svg>
