<svg
 xmlns="http://www.w3.org/2000/svg"
 xmlns:xlink="http://www.w3.org/1999/xlink"
 width="13px" height="10px">
<path fill-rule="evenodd"  fill="rgb(241, 14, 52)"
 d="M10.741,1.846 C11.249,1.541 11.592,1.111 11.771,0.555 C11.307,0.830 10.811,1.019 10.284,1.120 C9.819,0.627 9.249,0.381 8.572,0.381 C7.924,0.381 7.371,0.609 6.914,1.066 C6.457,1.523 6.228,2.076 6.228,2.724 C6.228,2.898 6.248,3.077 6.287,3.261 C5.329,3.212 4.431,2.972 3.591,2.539 C2.752,2.106 2.040,1.529 1.455,0.809 C1.242,1.171 1.136,1.566 1.136,1.991 C1.136,2.393 1.230,2.765 1.419,3.108 C1.607,3.452 1.861,3.730 2.180,3.942 C1.803,3.928 1.450,3.829 1.121,3.645 L1.121,3.674 C1.121,4.240 1.299,4.737 1.655,5.165 C2.010,5.593 2.459,5.863 3.000,5.974 C2.797,6.027 2.592,6.054 2.384,6.054 C2.248,6.054 2.101,6.042 1.941,6.017 C2.091,6.486 2.367,6.872 2.768,7.174 C3.169,7.477 3.624,7.633 4.132,7.642 C3.281,8.310 2.311,8.643 1.223,8.643 C1.015,8.643 0.826,8.634 0.657,8.614 C1.745,9.316 2.945,9.666 4.255,9.666 C5.087,9.666 5.868,9.535 6.598,9.271 C7.329,9.007 7.953,8.654 8.470,8.212 C8.988,7.769 9.434,7.260 9.809,6.685 C10.183,6.109 10.463,5.508 10.646,4.882 C10.830,4.256 10.922,3.628 10.922,2.999 C10.922,2.864 10.920,2.762 10.915,2.695 C11.374,2.361 11.766,1.957 12.090,1.483 C11.640,1.677 11.191,1.798 10.741,1.846 L10.741,1.846 Z"/>
</svg>
