<svg
 xmlns="http://www.w3.org/2000/svg"
 xmlns:xlink="http://www.w3.org/1999/xlink"
 width="13px" height="12px">
<path fill-rule="evenodd"
 d="M11.024,0.916 C9.384,0.863 8.274,1.787 7.694,3.687 C8.003,3.562 8.296,3.499 8.572,3.499 C9.162,3.499 9.425,3.835 9.362,4.507 C9.324,4.918 9.060,5.513 8.572,6.292 C8.073,7.071 7.701,7.460 7.454,7.460 C7.140,7.460 6.850,6.858 6.584,5.653 C6.478,5.238 6.318,4.336 6.105,2.947 C5.994,2.275 5.798,1.783 5.518,1.471 C5.237,1.159 4.867,1.025 4.408,1.069 C3.996,1.107 3.414,1.460 2.659,2.128 C2.437,2.321 2.122,2.601 1.716,2.966 C1.310,3.331 1.049,3.564 0.933,3.666 L1.491,4.377 C2.018,4.009 2.326,3.825 2.413,3.825 C2.824,3.825 3.203,4.459 3.552,5.726 C3.977,7.283 4.296,8.449 4.509,9.223 C4.983,10.495 5.563,11.131 6.250,11.131 C7.358,11.131 8.717,10.088 10.327,8.004 C11.884,5.997 12.687,4.423 12.736,3.281 C12.808,1.743 12.238,0.955 11.024,0.916 L11.024,0.916 Z"/>
</svg>
